<?xml version="1.0" encoding="UTF-8" standalone="no"?>
<!-- Created with Inkscape (http://www.inkscape.org/) -->
<svg
   xmlns:dc="http://purl.org/dc/elements/1.1/"
   xmlns:cc="http://web.resource.org/cc/"
   xmlns:rdf="http://www.w3.org/1999/02/22-rdf-syntax-ns#"
   xmlns:svg="http://www.w3.org/2000/svg"
   xmlns="http://www.w3.org/2000/svg"
   xmlns:sodipodi="http://sodipodi.sourceforge.net/DTD/sodipodi-0.dtd"
   xmlns:inkscape="http://www.inkscape.org/namespaces/inkscape"
   width="229.09787"
   height="140.56796"
   id="svg2658"
   sodipodi:version="0.32"
   inkscape:version="0.45"
   sodipodi:modified="true"
   version="1.0">
  <defs
     id="defs2660" />
  <sodipodi:namedview
     id="base"
     pagecolor="#ffffff"
     bordercolor="#666666"
     borderopacity="1.0"
     gridtolerance="10000"
     guidetolerance="10000"
     objecttolerance="10000"
     inkscape:pageopacity="0.0"
     inkscape:pageshadow="2"
     inkscape:zoom="3.6423661"
     inkscape:cx="114.54894"
     inkscape:cy="70.283978"
     inkscape:document-units="px"
     inkscape:current-layer="layer1"
     showgrid="true"
     gridspacingx="0px"
     gridspacingy="0px"
     gridempspacing="0"
     inkscape:object-bbox="true"
     inkscape:object-points="true"
     inkscape:object-nodes="true"
     inkscape:grid-points="true"
     inkscape:guide-points="true"
     borderlayer="true"
     inkscape:window-width="1024"
     inkscape:window-height="712"
     inkscape:window-x="-4"
     inkscape:window-y="-4" />
  <metadata
     id="metadata2663">
    <rdf:RDF>
      <cc:Work
         rdf:about="">
        <dc:format>image/svg+xml</dc:format>
        <dc:type
           rdf:resource="http://purl.org/dc/dcmitype/StillImage" />
      </cc:Work>
    </rdf:RDF>
  </metadata>
  <g
     inkscape:label="Layer 1"
     inkscape:groupmode="layer"
     id="layer1"
     transform="translate(-288.27461,-216.28996)">
    <path
       transform="matrix(1.0487536,0,0,0.9168944,59.17623,140.40978)"
       style="fill:#ffcc00;fill-rule:evenodd;overflow:visible"
       d="M 436.896,155.9873 L 436.896,147.53906 L 434.80762,147.4668 L 432.79199,147.34668 L 430.77637,147.15479 L 428.80762,146.93848 L 426.83984,146.62695 L 424.94434,146.29053 L 423.04785,145.88281 L 421.22363,145.42676 L 419.37598,144.87451 L 417.57617,144.29883 L 415.7998,143.65039 L 414.07227,142.97852 L 412.34375,142.18652 L 410.66406,141.39453 L 409.00781,140.50635 L 407.40039,139.59424 L 405.76855,138.56201 L 404.20801,137.53027 L 402.64844,136.40186 L 401.16016,135.25 L 399.67188,134.00195 L 398.23242,132.72949 L 396.79199,131.36182 L 395.42383,129.96973 L 394.03223,128.48145 L 392.71191,126.96924 L 391.39258,125.36133 L 390.12012,123.75293 L 388.84766,122.04883 L 387.64844,120.29688 L 386.44824,118.47266 L 385.32031,116.62451 L 384.02441,114.51221 L 382.72852,112.49609 L 381.38477,110.52832 L 380.6875,109.56787 L 380.01563,108.65576 L 379.2959,107.71973 L 378.59961,106.83203 L 377.16016,105.07959 L 375.67188,103.39941 L 374.18359,101.7915 L 373.39258,100.97559 L 372.62402,100.20752 L 371.04004,98.719238 L 369.4082,97.303223 L 367.77637,95.958984 L 366.0957,94.663086 L 364.39258,93.438965 L 363.50391,92.838867 L 362.64063,92.286621 L 360.86426,91.206543 L 359.04004,90.174805 L 358.104,89.67041 L 357.19189,89.214355 L 355.2959,88.32666 L 353.37598,87.510254 L 351.4082,86.742188 L 349.41602,86.046387 L 347.3999,85.422363 L 345.36035,84.870117 L 343.24805,84.366211 L 341.13623,83.934082 L 338.97607,83.574219 L 337.87207,83.40625 L 336.79199,83.286133 L 335.66406,83.14209 L 334.56006,83.045898 L 332.3042,82.87793 L 330,82.782227 L 327.69629,82.757813 L 325.34424,82.782227 L 323.04004,82.87793 L 320.76025,83.045898 L 318.55225,83.286133 L 316.34424,83.574219 L 314.18408,83.934082 L 312.04834,84.366211 L 309.98389,84.870117 L 307.896,85.422363 L 305.87988,86.046387 L 303.88818,86.742188 L 301.94434,87.510254 L 300,88.32666 L 298.12793,89.214355 L 296.28027,90.174805 L 294.47998,91.206543 L 292.68018,92.286621 L 290.92822,93.438965 L 289.2002,94.663086 L 287.54395,95.958984 L 285.86426,97.303223 L 284.25586,98.719238 L 282.67188,100.20752 L 281.16016,101.7915 L 279.62402,103.39941 L 278.16016,105.07959 L 276.72021,106.83203 L 275.32813,108.65576 L 273.93604,110.52832 L 272.61621,112.49609 L 271.2959,114.51221 L 270.04834,116.62451 L 269.44824,117.53662 L 268.87207,118.47266 L 267.67188,120.29688 L 267.04834,121.16113 L 266.73633,121.59277 L 266.44824,122.04883 L 265.2002,123.75293 L 263.9043,125.36133 L 262.60791,126.96924 L 261.26416,128.48145 L 259.91992,129.96973 L 259.2002,130.66553 L 258.84033,131.00146 L 258.50391,131.36182 L 257.78418,132.03369 L 257.42432,132.36963 L 257.08789,132.72949 L 256.34424,133.35352 L 255.62402,134.00195 L 254.87988,134.62598 L 254.16016,135.25 L 252.62402,136.40186 L 251.08789,137.53027 L 250.68018,137.77002 L 250.2959,138.03418 L 249.52832,138.56201 L 247.94434,139.59424 L 247.51221,139.81006 L 247.104,140.05029 L 246.28809,140.50635 L 245.44824,140.93848 L 244.63232,141.39453 L 242.95215,142.18652 L 242.08789,142.57031 L 241.65625,142.7627 L 241.24805,142.97852 L 240.36035,143.31445 L 239.49609,143.65039 L 237.72021,144.29883 L 236.80811,144.58643 L 235.91992,144.87451 L 235.0083,145.13867 L 234.12012,145.42676 L 232.24805,145.88281 L 231.28809,146.07471 L 230.80811,146.1709 L 230.35205,146.29053 L 228.43213,146.62695 L 226.51221,146.93848 L 225.50391,147.03467 L 225,147.08301 L 224.52002,147.15479 L 223.51221,147.25098 L 222.52832,147.34668 L 221.49609,147.39453 L 220.48828,147.4668 L 219.95996,147.4668 L 219.45605,147.49072 L 218.44824,147.53906 L 218.44824,155.9873 L 219.57617,155.93945 L 220.72803,155.8916 L 221.28027,155.84326 L 221.85596,155.81934 L 223.0083,155.77148 L 224.1123,155.67529 L 225.24023,155.57959 L 227.44824,155.33936 L 229.60791,155.00342 L 231.76807,154.61914 L 233.87988,154.16309 L 234.38428,154.01904 L 234.91211,153.89941 L 235.96826,153.65918 L 236.97607,153.34717 L 238.0083,153.05908 L 240.02393,152.41113 L 241.99219,151.69092 L 242.95215,151.30713 L 243.43213,151.11523 L 243.93604,150.94727 L 244.87207,150.51514 L 245.83203,150.08301 L 246.28809,149.84277 L 246.76807,149.62695 L 247.72803,149.19482 L 248.64014,148.69092 L 249.57617,148.21094 L 251.3999,147.20264 L 252.26416,146.62695 L 252.69629,146.33887 L 253.15234,146.07471 L 254.01611,145.47461 L 254.9043,144.89844 L 255.74414,144.27441 L 256.60791,143.65039 L 258.28809,142.37842 L 259.91992,140.98633 L 261.55225,139.57031 L 263.13623,138.05811 L 263.9043,137.29004 L 264.69629,136.52197 L 265.05615,136.08984 L 265.43994,135.68213 L 266.20801,134.86572 L 267.69629,133.18555 L 269.13623,131.43359 L 269.83203,130.52148 L 270.55225,129.6333 L 271.22412,128.67334 L 271.56006,128.19336 L 271.91992,127.7373 L 272.59229,126.75342 L 273.28809,125.79297 L 273.93604,124.78516 L 274.60791,123.77686 L 275.9043,121.71289 L 277.08008,119.81689 L 278.3042,117.99268 L 279.52832,116.21631 L 280.82422,114.51221 L 282.09619,112.85645 L 283.43994,111.27197 L 284.78418,109.73584 L 286.17627,108.27197 L 287.56836,106.85596 L 289.0083,105.51172 L 290.47217,104.21582 L 291.98389,102.9917 L 293.49609,101.81543 L 295.05615,100.71143 L 296.61621,99.655273 L 298.24805,98.671387 L 299.85596,97.735352 L 301.53613,96.871094 L 303.21631,96.055176 L 304.94434,95.311035 L 306.67188,94.614746 L 308.44824,93.990723 L 310.22412,93.415039 L 312.07227,92.910645 L 313.896,92.45459 L 315.79199,92.070801 L 317.68799,91.734863 L 319.65625,91.470703 L 321.6001,91.254883 L 323.61621,91.11084 L 325.63232,91.038574 L 327.69629,91.014648 L 329.73633,91.038574 L 331.77588,91.11084 L 333.79199,91.254883 L 335.78418,91.470703 L 337.72803,91.734863 L 339.64795,92.070801 L 340.58398,92.23877 L 341.54395,92.45459 L 343.41602,92.910645 L 345.24023,93.415039 L 346.12793,93.678711 L 347.04004,93.990723 L 348.81592,94.614746 L 350.59229,95.311035 L 352.2959,96.055176 L 353.13623,96.438965 L 354,96.871094 L 354.81592,97.279297 L 355.65625,97.735352 L 357.31201,98.671387 L 358.89648,99.655273 L 359.66406,100.15918 L 360.45605,100.71143 L 361.99219,101.81543 L 363.52832,102.9917 L 364.99219,104.21582 L 365.71191,104.83984 L 366.45605,105.51172 L 367.89648,106.85596 L 369.3125,108.27197 L 370.65625,109.73584 L 372,111.27197 L 372.64844,112.04004 L 373.32031,112.85645 L 374.61621,114.51221 L 375.86426,116.21631 L 376.46387,117.08057 L 377.08789,117.99268 L 378.28809,119.81689 L 379.46387,121.71289 L 380.73633,123.77686 L 382.08008,125.79297 L 383.44824,127.7373 L 384.86426,129.6333 L 386.28027,131.43359 L 387.74414,133.18555 L 389.23242,134.86572 L 390.79199,136.52197 L 392.32813,138.05811 L 393.93652,139.57031 L 395.54395,140.98633 L 397.22363,142.37842 L 398.87988,143.65039 L 400.6084,144.89844 L 402.36035,146.07471 L 404.16016,147.20264 L 405.93652,148.21094 L 407.78418,149.19482 L 409.65625,150.08301 L 411.57617,150.94727 L 413.49609,151.69092 L 415.46387,152.41113 L 417.45605,153.05908 L 419.52051,153.65918 L 421.56055,154.16309 L 423.64844,154.61914 L 425.75977,155.00342 L 427.94434,155.33936 L 430.10449,155.57959 L 432.33594,155.77148 L 434.5918,155.8916 L 436.896,155.9873 z "
       id="polygon215" />
    <path
       transform="matrix(1.0487536,0,0,-0.9168944,59.176232,432.7381)"
       style="fill:#ffcc00;fill-rule:evenodd;overflow:visible"
       d="M 436.896,155.9873 L 436.896,147.53906 L 434.80762,147.4668 L 432.79199,147.34668 L 430.77637,147.15479 L 428.80762,146.93848 L 426.83984,146.62695 L 424.94434,146.29053 L 423.04785,145.88281 L 421.22363,145.42676 L 419.37598,144.87451 L 417.57617,144.29883 L 415.7998,143.65039 L 414.07227,142.97852 L 412.34375,142.18652 L 410.66406,141.39453 L 409.00781,140.50635 L 407.40039,139.59424 L 405.76855,138.56201 L 404.20801,137.53027 L 402.64844,136.40186 L 401.16016,135.25 L 399.67188,134.00195 L 398.23242,132.72949 L 396.79199,131.36182 L 395.42383,129.96973 L 394.03223,128.48145 L 392.71191,126.96924 L 391.39258,125.36133 L 390.12012,123.75293 L 388.84766,122.04883 L 387.64844,120.29688 L 386.44824,118.47266 L 385.32031,116.62451 L 384.02441,114.51221 L 382.72852,112.49609 L 381.38477,110.52832 L 380.6875,109.56787 L 380.01563,108.65576 L 379.2959,107.71973 L 378.59961,106.83203 L 377.16016,105.07959 L 375.67188,103.39941 L 374.18359,101.7915 L 373.39258,100.97559 L 372.62402,100.20752 L 371.04004,98.719238 L 369.4082,97.303223 L 367.77637,95.958984 L 366.0957,94.663086 L 364.39258,93.438965 L 363.50391,92.838867 L 362.64063,92.286621 L 360.86426,91.206543 L 359.04004,90.174805 L 358.104,89.67041 L 357.19189,89.214355 L 355.2959,88.32666 L 353.37598,87.510254 L 351.4082,86.742188 L 349.41602,86.046387 L 347.3999,85.422363 L 345.36035,84.870117 L 343.24805,84.366211 L 341.13623,83.934082 L 338.97607,83.574219 L 337.87207,83.40625 L 336.79199,83.286133 L 335.66406,83.14209 L 334.56006,83.045898 L 332.3042,82.87793 L 330,82.782227 L 327.69629,82.757813 L 325.34424,82.782227 L 323.04004,82.87793 L 320.76025,83.045898 L 318.55225,83.286133 L 316.34424,83.574219 L 314.18408,83.934082 L 312.04834,84.366211 L 309.98389,84.870117 L 307.896,85.422363 L 305.87988,86.046387 L 303.88818,86.742188 L 301.94434,87.510254 L 300,88.32666 L 298.12793,89.214355 L 296.28027,90.174805 L 294.47998,91.206543 L 292.68018,92.286621 L 290.92822,93.438965 L 289.2002,94.663086 L 287.54395,95.958984 L 285.86426,97.303223 L 284.25586,98.719238 L 282.67188,100.20752 L 281.16016,101.7915 L 279.62402,103.39941 L 278.16016,105.07959 L 276.72021,106.83203 L 275.32813,108.65576 L 273.93604,110.52832 L 272.61621,112.49609 L 271.2959,114.51221 L 270.04834,116.62451 L 269.44824,117.53662 L 268.87207,118.47266 L 267.67188,120.29688 L 267.04834,121.16113 L 266.73633,121.59277 L 266.44824,122.04883 L 265.2002,123.75293 L 263.9043,125.36133 L 262.60791,126.96924 L 261.26416,128.48145 L 259.91992,129.96973 L 259.2002,130.66553 L 258.84033,131.00146 L 258.50391,131.36182 L 257.78418,132.03369 L 257.42432,132.36963 L 257.08789,132.72949 L 256.34424,133.35352 L 255.62402,134.00195 L 254.87988,134.62598 L 254.16016,135.25 L 252.62402,136.40186 L 251.08789,137.53027 L 250.68018,137.77002 L 250.2959,138.03418 L 249.52832,138.56201 L 247.94434,139.59424 L 247.51221,139.81006 L 247.104,140.05029 L 246.28809,140.50635 L 245.44824,140.93848 L 244.63232,141.39453 L 242.95215,142.18652 L 242.08789,142.57031 L 241.65625,142.7627 L 241.24805,142.97852 L 240.36035,143.31445 L 239.49609,143.65039 L 237.72021,144.29883 L 236.80811,144.58643 L 235.91992,144.87451 L 235.0083,145.13867 L 234.12012,145.42676 L 232.24805,145.88281 L 231.28809,146.07471 L 230.80811,146.1709 L 230.35205,146.29053 L 228.43213,146.62695 L 226.51221,146.93848 L 225.50391,147.03467 L 225,147.08301 L 224.52002,147.15479 L 223.51221,147.25098 L 222.52832,147.34668 L 221.49609,147.39453 L 220.48828,147.4668 L 219.95996,147.4668 L 219.45605,147.49072 L 218.44824,147.53906 L 218.44824,155.9873 L 219.57617,155.93945 L 220.72803,155.8916 L 221.28027,155.84326 L 221.85596,155.81934 L 223.0083,155.77148 L 224.1123,155.67529 L 225.24023,155.57959 L 227.44824,155.33936 L 229.60791,155.00342 L 231.76807,154.61914 L 233.87988,154.16309 L 234.38428,154.01904 L 234.91211,153.89941 L 235.96826,153.65918 L 236.97607,153.34717 L 238.0083,153.05908 L 240.02393,152.41113 L 241.99219,151.69092 L 242.95215,151.30713 L 243.43213,151.11523 L 243.93604,150.94727 L 244.87207,150.51514 L 245.83203,150.08301 L 246.28809,149.84277 L 246.76807,149.62695 L 247.72803,149.19482 L 248.64014,148.69092 L 249.57617,148.21094 L 251.3999,147.20264 L 252.26416,146.62695 L 252.69629,146.33887 L 253.15234,146.07471 L 254.01611,145.47461 L 254.9043,144.89844 L 255.74414,144.27441 L 256.60791,143.65039 L 258.28809,142.37842 L 259.91992,140.98633 L 261.55225,139.57031 L 263.13623,138.05811 L 263.9043,137.29004 L 264.69629,136.52197 L 265.05615,136.08984 L 265.43994,135.68213 L 266.20801,134.86572 L 267.69629,133.18555 L 269.13623,131.43359 L 269.83203,130.52148 L 270.55225,129.6333 L 271.22412,128.67334 L 271.56006,128.19336 L 271.91992,127.7373 L 272.59229,126.75342 L 273.28809,125.79297 L 273.93604,124.78516 L 274.60791,123.77686 L 275.9043,121.71289 L 277.08008,119.81689 L 278.3042,117.99268 L 279.52832,116.21631 L 280.82422,114.51221 L 282.09619,112.85645 L 283.43994,111.27197 L 284.78418,109.73584 L 286.17627,108.27197 L 287.56836,106.85596 L 289.0083,105.51172 L 290.47217,104.21582 L 291.98389,102.9917 L 293.49609,101.81543 L 295.05615,100.71143 L 296.61621,99.655273 L 298.24805,98.671387 L 299.85596,97.735352 L 301.53613,96.871094 L 303.21631,96.055176 L 304.94434,95.311035 L 306.67188,94.614746 L 308.44824,93.990723 L 310.22412,93.415039 L 312.07227,92.910645 L 313.896,92.45459 L 315.79199,92.070801 L 317.68799,91.734863 L 319.65625,91.470703 L 321.6001,91.254883 L 323.61621,91.11084 L 325.63232,91.038574 L 327.69629,91.014648 L 329.73633,91.038574 L 331.77588,91.11084 L 333.79199,91.254883 L 335.78418,91.470703 L 337.72803,91.734863 L 339.64795,92.070801 L 340.58398,92.23877 L 341.54395,92.45459 L 343.41602,92.910645 L 345.24023,93.415039 L 346.12793,93.678711 L 347.04004,93.990723 L 348.81592,94.614746 L 350.59229,95.311035 L 352.2959,96.055176 L 353.13623,96.438965 L 354,96.871094 L 354.81592,97.279297 L 355.65625,97.735352 L 357.31201,98.671387 L 358.89648,99.655273 L 359.66406,100.15918 L 360.45605,100.71143 L 361.99219,101.81543 L 363.52832,102.9917 L 364.99219,104.21582 L 365.71191,104.83984 L 366.45605,105.51172 L 367.89648,106.85596 L 369.3125,108.27197 L 370.65625,109.73584 L 372,111.27197 L 372.64844,112.04004 L 373.32031,112.85645 L 374.61621,114.51221 L 375.86426,116.21631 L 376.46387,117.08057 L 377.08789,117.99268 L 378.28809,119.81689 L 379.46387,121.71289 L 380.73633,123.77686 L 382.08008,125.79297 L 383.44824,127.7373 L 384.86426,129.6333 L 386.28027,131.43359 L 387.74414,133.18555 L 389.23242,134.86572 L 390.79199,136.52197 L 392.32813,138.05811 L 393.93652,139.57031 L 395.54395,140.98633 L 397.22363,142.37842 L 398.87988,143.65039 L 400.6084,144.89844 L 402.36035,146.07471 L 404.16016,147.20264 L 405.93652,148.21094 L 407.78418,149.19482 L 409.65625,150.08301 L 411.57617,150.94727 L 413.49609,151.69092 L 415.46387,152.41113 L 417.45605,153.05908 L 419.52051,153.65918 L 421.56055,154.16309 L 423.64844,154.61914 L 425.75977,155.00342 L 427.94434,155.33936 L 430.10449,155.57959 L 432.33594,155.77148 L 434.5918,155.8916 L 436.896,155.9873 z "
       id="polygon2736" />
    <path
       transform="matrix(1.1685682,0,0,0.9494523,-104.90544,58.389115)"
       style="fill:#ffcc00;fill-rule:evenodd;overflow:visible"
       d="M 417.57617,236.33787 L 417.57617,227.3208 L 402.76855,235.16943 L 402.76855,272.87598 L 417.57617,282.18848 L 417.81351,270.31996 L 410.79508,265.30738 L 410.55775,240.34617 L 417.57617,236.33787 z "
       id="polygon247"
       sodipodi:nodetypes="ccccccccc" />
    <path
       transform="matrix(1.0687283,0,0,0.9457892,-65.256485,58.667117)"
       style="fill:#ffcc00;fill-rule:evenodd;overflow:visible"
       d="M 431.59344,236.6511 L 442.82307,236.6511 L 442.82307,249.48725 L 451.31982,249.48725 L 451.31982,227.3208 L 423.07227,227.3208 L 423.07227,285.16504 L 437.3042,293.8291 L 451.15186,285.16504 L 451.15186,250.9943 L 436.07476,250.9943 L 436.07476,258.73031 L 443.60159,258.73031 L 443.60159,278.53353 L 437.3042,282.34896 L 431.59344,277.69271 L 431.59344,236.6511 z "
       id="polygon249"
       sodipodi:nodetypes="ccccccccccccccccc" />
    <path
       transform="matrix(1.1373639,0,0,0.9504073,-98.123727,57.628026)"
       style="fill:#ffcc00;fill-rule:evenodd;overflow:visible"
       d="M 463.72931,231.57363 L 457.00732,227.53662 L 457.00732,283.46094 L 473.15967,272.87598 L 473.15967,236.44141 L 465.79501,232.83868 L 465.79501,267.37725 L 463.72931,267.52083 L 463.72931,231.57363 z "
       id="polygon251"
       sodipodi:nodetypes="ccccccccc" />
    <path
       transform="matrix(1,0,0,0.9500259,-35.624757,60.001134)"
       style="fill:#ffcc00;fill-rule:evenodd;overflow:visible"
       d="M 396.71973,236.00928 L 389.13574,231.35303 L 437.49561,205.09521 L 485.85693,231.35303 L 478.37842,236.00928 L 478.37842,245.53809 L 505.71436,230.76916 L 437.49561,195.59033 L 370.10937,230.76916 L 396.71973,245.53809 L 396.71973,236.00928 z "
       id="polygon253"
       sodipodi:nodetypes="ccccccccccc" />
  </g>
</svg>
