<?xml version="1.0" encoding="utf-8"?>
<!-- Generator: Adobe Illustrator 26.0.2, SVG Export Plug-In . SVG Version: 6.00 Build 0)  -->
<svg version="1.1" id="圖層_1" xmlns="http://www.w3.org/2000/svg" xmlns:xlink="http://www.w3.org/1999/xlink" x="0px" y="0px"
	 viewBox="0 0 1125 2436" style="enable-background:new 0 0 1125 2436;" xml:space="preserve">
<style type="text/css">
	.st0{fill:none;}
	.st1{fill:#00BAC6;}
	.st2{fill:#FFD400;}
	.st3{fill:#A6CE39;}
	.st4{fill:#ED1C24;}
	.st5{fill:url(#SVGID_1_);}
	.st6{fill:url(#SVGID_00000023279724508076152370000014442543121209113747_);}
	.st7{fill-rule:evenodd;clip-rule:evenodd;fill:#FBAE17;}
</style>
<pattern  y="2436" width="334.2" height="190.2" patternUnits="userSpaceOnUse" id="妖怪" viewBox="52.1 -254.3 334.2 190.2" style="overflow:visible;">
	<g>
		<rect x="52.1" y="-254.3" class="st0" width="334.2" height="190.2"/>
		<g>
			<rect x="52.1" y="-254.3" class="st0" width="334.2" height="190.2"/>
			<g>
				<path class="st1" d="M373-297.7c-0.8-2.2-3.3-3.4-5.5-2.6c-0.5,0.2-12.7,6.9-25,12.7c-0.4-0.8-0.8-1.6-1.3-2.2
					c0,0,35.6-37.6,36.5-38.7c0.7-0.9,1.1-2,1-3.1c-0.1-1.1-0.6-2.2-1.5-2.9s-2-1.1-3.1-1c-1.1,0.1-2.2,0.6-2.9,1.5
					c-0.9,1-32.4,42-32.4,42c-0.9-0.6-1.9-1-3-1.2c0,0,0.8-23.7,0.8-24.9c0-1.1-0.5-2.2-1.3-3s-1.9-1.2-3.1-1.2c-0.1,0-0.2,0-0.2,0
					c-2.3,0.2-4,2.1-3.9,4.4c0,1.2,3.5,24.6,3.5,24.6c-0.9,0.2-1.7,0.5-2.4,0.9c0,0-19.3-34-20.2-35.4c-0.9-1.3-2.4-2-3.9-1.8
					c-0.7,0.1-1.5,0.3-2.1,0.8c-0.9,0.6-1.6,1.6-1.8,2.8c-0.2,1.1,0,2.3,0.7,3.2c0.9,1.3,25.6,31.6,25.6,31.6
					c-0.3,0.3-0.6,0.6-0.9,0.9c-7.8-8.3-19.5-20.6-20.2-21.1c-1.8-1.5-4.5-1.3-6,0.5c-1.5,1.8-1.3,4.5,0.5,6
					c0.6,0.5,14.9,10.1,24.4,16.4c-0.1,0.2-0.2,0.3-0.3,0.5c0,0-34.9-14-36.2-14.4c-0.5-0.2-1.1-0.2-1.7-0.2c-1.7,0.1-3.2,1.3-3.7,3
					c-0.4,1.1-0.2,2.3,0.3,3.3c0.5,1,1.4,1.8,2.5,2.1c1.3,0.4,37.8,9.2,37.8,9.2c-0.1,0.8-0.2,1.6-0.1,2.4c0,0.2,0.1,0.4,0.1,0.7
					c0,0-28.8,5.1-30.2,5.5c-2.3,0.6-3.6,3-3,5.3c0.6,2,2.5,3.3,4.5,3.1c0.3,0,0.5-0.1,0.8-0.2c1.4-0.4,28.6-11.2,28.6-11.2
					c0.5,1.1,1.2,2.2,2.1,3c0,0-33.8,35.5-34.9,36.8c-0.7,0.9-1.1,2-1,3.1c0.1,1.1,0.6,2.2,1.5,2.9c0.9,0.7,2,1.1,3.1,1
					c1.1-0.1,2.2-0.6,2.9-1.5c1.1-1.3,29.9-41.1,29.9-41.1c0.4,0.3,0.9,0.5,1.3,0.7c-5.5,12.1-15,32.8-15.1,33.3
					c-0.8,2.2,0.4,4.7,2.7,5.5c2.2,0.8,4.7-0.4,5.5-2.7c0.2-0.5,5.6-22.7,8.7-35.6c0.7,0.2,1.4,0.3,2.1,0.3c0,0-0.9,23.8-0.7,25.3
					c0.2,2.4,2.3,4.1,4.6,3.9c2.4-0.2,4.1-2.3,3.9-4.6c-0.1-1.5-5-24.9-5-24.9c0.9-0.2,1.7-0.6,2.4-1c0,0,20.2,35.5,21.2,36.9
					c0.9,1.3,2.4,2,3.9,1.8c0.7-0.1,1.5-0.3,2.1-0.7c2-1.3,2.5-4,1.1-6c-0.9-1.4-26.7-33.2-26.7-33.2c1.1-1,2-2.2,2.5-3.6
					c0,0,34.5,9,35.7,9.3c0.4,0.1,0.8,0.1,1.2,0.1c1.9-0.2,3.5-1.6,3.9-3.5c0.2-1.1,0-2.3-0.7-3.2c-0.6-0.9-1.6-1.6-2.8-1.8
					c-1.2-0.2-36.5-4.9-36.5-4.9c0-0.2,0-0.3,0-0.5c0-0.4-0.1-0.8-0.2-1.3c13.1-3.5,26.8-6.3,27.3-6.4
					C372.7-293,373.8-295.4,373-297.7z M340.6-284.2c0.3,3.9-2.6,7.3-6.5,7.7c-3.9,0.3-7.3-2.6-7.7-6.5c-0.3-3.9,2.6-7.3,6.5-7.7
					C336.8-291,340.3-288.1,340.6-284.2z"/>
				<path class="st2" d="M351-239.5c-0.8,1.4-0.3,3.1,1,3.9c0.3,0.2,8.5,3.3,16.8,7.1c-0.3,0.5-0.5,1.1-0.6,1.6c0,0-30.3-2-31.2-2
					c-0.8,0-1.5,0.3-2,0.8c-0.5,0.5-0.8,1.3-0.8,2c0,0.8,0.3,1.5,0.8,2c0.5,0.5,1.3,0.8,2,0.8c0.9,0,31.2-1.5,31.2-1.5
					c0.1,0.7,0.3,1.4,0.6,2.1c0,0-12.5,9.8-13.1,10.3c-0.6,0.5-0.9,1.2-1,2s0.2,1.5,0.7,2.1c0,0,0.1,0.1,0.1,0.1
					c1.1,1.1,2.8,1.1,3.9,0.1c0.6-0.5,11.1-12.4,11.1-12.4c0.5,0.4,1,0.7,1.5,0.9c0,0-9.1,24.6-9.4,25.6c-0.3,1,0,2.1,0.7,2.8
					c0.4,0.4,0.8,0.6,1.3,0.7c0.7,0.2,1.5,0.1,2.2-0.3c0.7-0.4,1.1-1,1.4-1.7c0.3-1.1,5.1-26.8,5.1-26.8c0.3,0.1,0.6,0.1,0.8,0.1
					c-0.9,7.6-2.1,18.9-2.1,19.5c0,1.6,1.3,2.9,2.9,2.9s2.9-1.3,2.9-2.9c0-0.6-1.3-12-2.1-19.5c0.1,0,0.2,0,0.4-0.1
					c0,0,7.9,23.9,8.3,24.8c0.1,0.4,0.4,0.7,0.6,0.9c0.8,0.8,2,1.1,3.1,0.6c0.7-0.3,1.3-0.8,1.6-1.6c0.3-0.7,0.3-1.5,0-2.2
					c-0.4-0.9-11.6-23.3-11.6-23.3c0.5-0.3,0.9-0.6,1.3-1c0.1-0.1,0.2-0.2,0.3-0.3c0,0,15,12.5,15.9,13.1c1.3,0.9,3.1,0.5,4-0.8
					c0.8-1.1,0.6-2.7-0.4-3.6c-0.1-0.1-0.3-0.2-0.4-0.4c-0.8-0.6-18.1-9.8-18.1-9.8c0.4-0.8,0.6-1.6,0.6-2.4c0,0,27.1,2,28.2,2
					c0.8,0,1.5-0.3,2-0.8c0.5-0.5,0.8-1.3,0.8-2c0-0.8-0.3-1.5-0.8-2c-0.5-0.5-1.3-0.8-2-0.8c-1.1,0-28.2,2.4-28.2,2.4
					c0-0.3-0.1-0.7-0.2-1c8.6-2.4,23.3-6.5,23.6-6.6c1.5-0.6,2.2-2.2,1.6-3.7c-0.6-1.5-2.2-2.2-3.7-1.6c-0.4,0.1-14,6.9-22,10.9
					c-0.2-0.4-0.5-0.8-0.8-1.2c0,0,12.6-9.9,13.2-10.6c1.1-1.1,1.1-2.9,0-4.1c-1.1-1.1-3-1.1-4.1,0c-0.7,0.7-10.6,13.3-10.6,13.3
					c-0.5-0.3-1-0.6-1.6-0.8c0,0,7.8-19.4,8.1-20.5c0.3-1,0-2.1-0.7-2.8c-0.4-0.4-0.8-0.6-1.3-0.7c-1.5-0.4-3.1,0.5-3.5,2
					c-0.3,1.1-3.8,21.7-3.8,21.7c-1-0.1-2-0.1-2.9,0.2c0,0-10.3-21.6-10.7-22.3c-0.1-0.2-0.3-0.4-0.5-0.6c-0.9-0.9-2.3-1.1-3.5-0.5
					c-0.7,0.4-1.1,1-1.4,1.7c-0.2,0.7-0.1,1.5,0.3,2.2c0.4,0.7,13.3,20.8,13.3,20.8c-0.1,0.1-0.2,0.1-0.2,0.2
					c-0.2,0.2-0.4,0.4-0.6,0.6c-7.4-5.2-14.3-10.8-14.6-11C353.6-241.3,351.8-240.9,351-239.5z M371.4-228.9c1.9-1.8,4.9-1.8,6.7,0
					c1.9,1.9,1.9,4.9,0,6.7c-1.9,1.9-4.9,1.9-6.7,0C369.6-224,369.6-227.1,371.4-228.9z"/>
				<path class="st3" d="M487-334.4c-2.5-1.8-6.1-1.1-7.8,1.5c-0.4,0.6-14.6,26.4-23.2,42c-1-0.6-2-1-3.1-1.4c0,0,6.1-28.9,6.3-30.7
					c0.1-1.5-0.4-3-1.3-4.1c-1-1.1-2.3-1.8-3.8-1.9c-1.5-0.1-3,0.4-4.1,1.3c-1.1,1-1.8,2.3-2,3.8c-0.1,1.8,0.6,31.1,0.6,31.1
					c-1.4,0.1-2.8,0.4-4.1,0.9c0,0-17.2-25.9-18.2-27.1c-0.9-1.2-2.2-2-3.7-2.2c-1.5-0.2-3,0.2-4.2,1.1c-0.1,0.1-0.2,0.1-0.3,0.2
					c-2.3,1.9-2.6,5.3-0.8,7.7c0.9,1.2,22.5,23.5,22.5,23.5c-0.8,0.9-1.4,1.8-1.9,2.8c0,0-46.5-21.4-48.6-22.1c-1.9-0.7-4-0.3-5.6,1
					c-0.7,0.6-1.3,1.5-1.6,2.4c-0.5,1.4-0.4,2.9,0.2,4.3c0.6,1.4,1.8,2.4,3.2,2.9c2.1,0.7,51.4,14,51.4,14c-0.1,0.5-0.2,1.1-0.3,1.6
					c-14.6-2.8-36.5-7-37.6-7.1c-3.1-0.2-5.8,2.1-6,5.2s2.1,5.8,5.2,6c1.1,0.1,23.5-0.7,38.4-1.2c0,0.2,0,0.5,0.1,0.7
					c0,0-25,4.4-26.7,5c-0.7,0.2-1.4,0.6-1.9,1.1c-1.7,1.5-2.4,3.8-1.7,6c0.5,1.4,1.5,2.6,2.8,3.3c1.3,0.7,2.9,0.8,4.3,0.3
					c1.8-0.6,24.5-11.8,24.5-11.8c0.5,0.9,1,1.8,1.7,2.6c0.2,0.2,0.4,0.4,0.6,0.6c0,0-26.7,27.4-27.9,28.9c-1.9,2.4-1.5,6,0.9,7.9
					c2.1,1.7,5.1,1.6,7.1-0.1c0.3-0.2,0.5-0.5,0.8-0.8c1.2-1.5,21.9-33.8,21.9-33.8c1.4,0.8,3,1.4,4.5,1.6c0,0-6.4,32.8-6.6,35
					c-0.1,1.5,0.4,2.9,1.3,4.1c1,1.1,2.3,1.8,3.8,1.9c1.5,0.1,3-0.4,4.1-1.3c1.1-1,1.8-2.3,2-3.8c0.2-2.2-2-35.7-2-35.7
					c0.6,0,1.3-0.1,1.9-0.2c3.4,17.1,9.2,46.3,9.4,47.1c0.9,3,4,4.7,7,3.8c3-0.9,4.7-4,3.8-7c-0.2-0.7-11.4-28.4-17.9-44.5
					c0.9-0.3,1.7-0.8,2.5-1.3c0,0,11.9,19.7,13.1,21.1c2,2.4,5.6,2.6,7.9,0.6c2.4-2,2.6-5.6,0.6-7.9c-1.2-1.4-18.9-16.3-18.9-16.3
					c0.7-0.9,1.3-1.9,1.8-2.9c0,0,33.6,16.9,35.7,17.6c1.9,0.7,4,0.3,5.6-1c0.7-0.6,1.3-1.4,1.6-2.4c1-2.9-0.5-6.1-3.4-7.2
					c-2-0.7-38.7-9.5-38.7-9.5c0.4-1.9,0.4-3.8,0-5.7c0,0,30.9-10.9,32.3-11.6c0.5-0.2,0.9-0.5,1.3-0.8c1.9-1.6,2.5-4.4,1.4-6.7
					c-0.6-1.4-1.8-2.4-3.2-2.9c-1.4-0.5-2.9-0.4-4.3,0.2c-1.4,0.7-29.9,16.8-29.9,16.8c-0.1-0.2-0.2-0.3-0.4-0.5
					c-0.4-0.4-0.8-0.8-1.2-1.2c11.3-13.7,30-36.5,30.4-37.1C490.2-329.2,489.6-332.7,487-334.4z M456.5-286c3.3,3.9,2.9,9.8-1,13.1
					c-3.9,3.3-9.8,2.9-13.1-1c-3.3-3.9-2.9-9.8,1-13.1C447.3-290.4,453.2-289.9,456.5-286z"/>
				<path class="st4" d="M432.5-211c-2.1-1.1-4.6-0.2-5.7,1.8c-0.2,0.5-8.3,21.2-13.2,33.7c-0.8-0.3-1.6-0.6-2.5-0.7
					c0,0,1.8-22.2,1.7-23.5c-0.1-1.1-0.6-2.2-1.4-2.9s-1.9-1.1-3.1-1.1s-2.2,0.6-2.9,1.4c-0.8,0.8-1.1,1.9-1.1,3.1
					c0.1,1.3,3.5,23.2,3.5,23.2c-1,0.2-2,0.6-3,1.1c0,0-15.4-17.6-16.2-18.5c-0.8-0.8-1.9-1.2-3-1.3s-2.2,0.4-3,1.2
					c-0.1,0.1-0.1,0.1-0.2,0.2c-1.5,1.7-1.4,4.2,0.1,5.8c0.8,0.8,19.1,15.4,19.1,15.4c-0.5,0.7-0.9,1.5-1.2,2.3
					c0,0-36.9-11.5-38.5-11.8c-1.5-0.3-3,0.2-4,1.3c-0.5,0.6-0.8,1.2-1,1.9c-0.2,1.1,0,2.2,0.6,3.2c0.6,0.9,1.6,1.6,2.7,1.9
					c1.6,0.3,39.8,5.4,39.8,5.4c-0.1,0.4-0.1,0.8-0.1,1.2c-11.2-0.7-28-1.7-28.8-1.6c-2.3,0.1-4.1,2.1-4,4.5c0.1,2.3,2.1,4.1,4.5,4
					c0.8,0,17.5-2.8,28.6-4.6c0,0.2,0.1,0.4,0.1,0.5c0,0-18.2,5.8-19.5,6.4c-0.5,0.2-1,0.6-1.3,1c-1.1,1.3-1.4,3.1-0.7,4.7
					c0.5,1,1.3,1.8,2.4,2.2c1.1,0.4,2.2,0.3,3.2-0.2c1.2-0.6,17.2-11.2,17.2-11.2c0.4,0.6,1,1.3,1.6,1.8c0.2,0.1,0.3,0.3,0.5,0.4
					c0,0-17.3,23.1-18,24.4c-1.2,2-0.5,4.6,1.5,5.8c1.7,1,4,0.7,5.3-0.8c0.2-0.2,0.4-0.4,0.5-0.7c0.8-1.3,13-27.4,13-27.4
					c1.1,0.5,2.3,0.7,3.5,0.7c0,0-1.6,25.2-1.5,26.8c0.1,1.1,0.6,2.2,1.4,2.9s1.9,1.1,3.1,1.1c1.1-0.1,2.2-0.6,2.9-1.4
					c0.8-0.8,1.1-1.9,1.1-3.1c-0.1-1.6-5-26.5-5-26.5c0.5-0.1,0.9-0.2,1.4-0.4c4.2,12.4,11.4,33.7,11.6,34.3c1,2.1,3.5,3.1,5.6,2.1
					c2.1-1,3.1-3.5,2.1-5.6c-0.2-0.5-11.3-20.1-17.8-31.5c0.6-0.3,1.2-0.7,1.7-1.2c0,0,10.8,13.6,11.9,14.5c1.7,1.6,4.4,1.4,6-0.3
					c1.6-1.7,1.4-4.4-0.3-6c-1.1-1-15.7-10.4-15.7-10.4c0.5-0.8,0.8-1.5,1-2.4c0,0,26.8,9.4,28.4,9.7c1.5,0.3,3-0.2,4.1-1.3
					c0.5-0.5,0.8-1.2,1-1.9c0.5-2.3-0.9-4.6-3.2-5.1c-1.6-0.4-29.9-3.3-29.9-3.3c0.1-1.4-0.1-2.9-0.6-4.3c0,0,22-11.2,23-11.8
					c0.3-0.2,0.6-0.5,0.9-0.7c1.3-1.4,1.5-3.5,0.4-5.1c-0.6-1-1.6-1.6-2.7-1.9c-1.1-0.2-2.2,0-3.2,0.6c-1,0.6-20.7,15.5-20.7,15.5
					c-0.1-0.1-0.2-0.2-0.3-0.3c-0.3-0.3-0.6-0.5-1-0.8c7.1-11.4,18.9-30.2,19.1-30.7C435.4-207.3,434.6-209.9,432.5-211z
					 M414.4-171.8c2.9,2.6,3.1,7,0.5,9.9c-2.6,2.9-7,3.1-9.9,0.5s-3.1-7-0.5-9.9C407.1-174.1,411.5-174.4,414.4-171.8z"/>
			</g>
			<g>
				<path class="st4" d="M265.4-306.1c-2.1-1.1-4.6-0.2-5.7,1.8c-0.2,0.5-8.3,21.1-13.2,33.7c-0.8-0.3-1.6-0.6-2.4-0.7
					c0,0,1.8-22.2,1.7-23.5c-0.1-1.1-0.6-2.2-1.4-2.9c-0.8-0.8-1.9-1.1-3.1-1.1s-2.2,0.5-2.9,1.4c-0.8,0.8-1.1,1.9-1.1,3.1
					c0.1,1.3,3.5,23.2,3.5,23.2c-1,0.2-2,0.6-3,1.1c0,0-15.4-17.6-16.2-18.5c-0.8-0.8-1.9-1.2-3-1.3c-1.1,0-2.2,0.4-3,1.2
					c-0.1,0.1-0.1,0.1-0.2,0.2c-1.5,1.7-1.4,4.2,0.1,5.8c0.8,0.8,19.1,15.4,19.1,15.4c-0.5,0.7-0.9,1.5-1.2,2.3
					c0,0-36.9-11.5-38.5-11.8c-1.5-0.3-3,0.2-4.1,1.3c-0.5,0.6-0.8,1.2-1,1.9c-0.2,1.1,0,2.2,0.6,3.2c0.6,0.9,1.6,1.6,2.7,1.9
					c1.6,0.3,39.8,5.4,39.8,5.4c-0.1,0.4-0.1,0.8-0.1,1.2c-11.2-0.7-28-1.7-28.8-1.6c-2.3,0.1-4.1,2.1-4,4.5s2.1,4.1,4.5,4
					c0.8,0,17.5-2.8,28.6-4.6c0,0.2,0.1,0.4,0.1,0.5c0,0-18.2,5.7-19.5,6.3c-0.5,0.2-1,0.6-1.3,1c-1.1,1.3-1.4,3.1-0.7,4.7
					c0.5,1,1.3,1.8,2.4,2.2c1.1,0.4,2.2,0.3,3.2-0.2c1.2-0.6,17.2-11.2,17.2-11.2c0.4,0.7,0.9,1.3,1.6,1.8c0.2,0.2,0.3,0.3,0.5,0.4
					c0,0-17.3,23.1-18.1,24.4c-1.2,2-0.6,4.6,1.5,5.8c1.7,1,4,0.7,5.3-0.8c0.2-0.2,0.4-0.4,0.5-0.7c0.8-1.3,13-27.4,13-27.4
					c1.1,0.5,2.3,0.7,3.6,0.7c0,0-1.6,25.2-1.5,26.8c0.1,1.1,0.6,2.2,1.4,2.9c0.8,0.8,1.9,1.2,3.1,1.1c1.1-0.1,2.2-0.6,2.9-1.4
					c0.8-0.8,1.1-1.9,1.1-3.1c-0.1-1.6-5-26.5-5-26.5c0.5-0.1,0.9-0.2,1.4-0.4c4.2,12.4,11.4,33.8,11.6,34.3c1,2.1,3.5,3.1,5.6,2.1
					c2.1-1,3.1-3.5,2.1-5.6c-0.2-0.5-11.3-20.1-17.8-31.5c0.6-0.3,1.2-0.7,1.7-1.2c0,0,10.8,13.6,11.9,14.5c1.7,1.6,4.4,1.4,6-0.3
					c1.6-1.7,1.4-4.4-0.3-6c-1.1-1-15.7-10.4-15.7-10.4c0.5-0.8,0.8-1.5,1-2.4c0,0,26.8,9.3,28.4,9.7c1.5,0.3,3-0.2,4.1-1.3
					c0.5-0.5,0.8-1.2,1-1.9c0.5-2.3-0.9-4.6-3.2-5.1c-1.6-0.4-29.9-3.3-29.9-3.3c0.1-1.5-0.1-2.9-0.6-4.3c0,0,22-11.2,23-11.8
					c0.3-0.2,0.6-0.5,0.9-0.7c1.3-1.4,1.5-3.5,0.4-5.1c-0.6-1-1.6-1.6-2.7-1.9c-1.1-0.2-2.2,0-3.2,0.6c-1,0.6-20.7,15.5-20.7,15.5
					c-0.1-0.1-0.2-0.2-0.3-0.3c-0.3-0.3-0.6-0.5-1-0.8c7.1-11.4,18.9-30.2,19.1-30.7C268.3-302.4,267.5-305,265.4-306.1z
					 M247.3-266.9c2.9,2.6,3.1,7,0.5,9.9c-2.6,2.9-7,3.1-9.9,0.5s-3.1-7-0.5-9.9C239.9-269.2,244.4-269.4,247.3-266.9z"/>
			</g>
			<g>
				<path class="st2" d="M16.8-239.5c-0.8,1.4-0.3,3.1,1,3.9c0.3,0.2,8.5,3.3,16.8,7.1c-0.3,0.5-0.5,1.1-0.6,1.6c0,0-30.3-2-31.2-2
					c-0.8,0-1.5,0.3-2,0.8C0.3-227.4,0-226.7,0-226c0,0.8,0.3,1.5,0.8,2c0.5,0.5,1.3,0.8,2,0.8c0.9,0,31.2-1.5,31.2-1.5
					c0.1,0.7,0.3,1.4,0.6,2.1c0,0-12.5,9.8-13.1,10.3c-0.6,0.5-0.9,1.2-1,2s0.2,1.5,0.7,2.1c0,0,0.1,0.1,0.1,0.1
					c1.1,1.1,2.8,1.1,3.9,0.1c0.6-0.5,11.1-12.4,11.1-12.4c0.5,0.4,1,0.7,1.5,0.9c0,0-9.1,24.6-9.4,25.6c-0.3,1,0,2.1,0.7,2.8
					c0.4,0.4,0.8,0.6,1.3,0.7c0.7,0.2,1.5,0.1,2.2-0.3c0.7-0.4,1.2-1,1.3-1.7c0.3-1.1,5.1-26.8,5.1-26.8c0.3,0.1,0.6,0.1,0.8,0.1
					c-0.8,7.6-2.1,18.9-2.1,19.5c0,1.6,1.3,2.9,2.9,2.9s2.9-1.3,2.9-2.9c0-0.6-1.3-12-2.1-19.5c0.1,0,0.2,0,0.4-0.1
					c0,0,7.9,23.9,8.3,24.8c0.2,0.4,0.4,0.7,0.6,0.9c0.8,0.8,2,1.1,3.1,0.6c0.7-0.3,1.3-0.8,1.6-1.6c0.3-0.7,0.3-1.5,0-2.2
					c-0.4-0.9-11.6-23.3-11.6-23.3c0.5-0.3,0.9-0.6,1.3-1c0.1-0.1,0.2-0.2,0.3-0.3c0,0,15,12.5,15.9,13.1c1.3,0.9,3.1,0.5,4-0.8
					c0.8-1.1,0.6-2.7-0.3-3.6c-0.1-0.1-0.3-0.2-0.4-0.4c-0.8-0.6-18.1-9.8-18.1-9.8c0.4-0.8,0.6-1.6,0.6-2.4c0,0,27.1,2,28.2,2
					c0.8,0,1.5-0.3,2-0.8c0.5-0.5,0.8-1.3,0.8-2c0-0.8-0.3-1.5-0.8-2c-0.5-0.5-1.3-0.8-2-0.8c-1.1,0-28.2,2.4-28.2,2.4
					c0-0.3-0.1-0.7-0.2-1c8.6-2.4,23.3-6.5,23.6-6.6c1.5-0.6,2.2-2.2,1.6-3.7c-0.6-1.5-2.2-2.2-3.7-1.6c-0.3,0.1-14,6.9-22,10.9
					c-0.2-0.4-0.5-0.8-0.8-1.2c0,0,12.6-9.9,13.2-10.6c1.1-1.1,1.1-2.9,0-4.1c-1.1-1.1-3-1.1-4.1,0c-0.7,0.7-10.6,13.3-10.6,13.3
					c-0.5-0.3-1-0.6-1.6-0.8c0,0,7.8-19.4,8.1-20.5c0.3-1,0-2.1-0.7-2.8c-0.3-0.4-0.8-0.6-1.3-0.7c-1.5-0.4-3.1,0.5-3.5,2
					c-0.3,1.1-3.8,21.7-3.8,21.7c-1-0.1-2-0.1-2.9,0.2c0,0-10.3-21.6-10.7-22.3c-0.1-0.2-0.3-0.4-0.5-0.6c-0.9-0.9-2.3-1.1-3.5-0.5
					c-0.7,0.4-1.1,1-1.4,1.7c-0.2,0.7-0.1,1.5,0.3,2.2c0.4,0.7,13.3,20.8,13.3,20.8c-0.1,0.1-0.2,0.1-0.2,0.2
					c-0.2,0.2-0.4,0.4-0.6,0.6c-7.4-5.2-14.3-10.8-14.6-11C19.4-241.3,17.6-240.9,16.8-239.5z M37.2-228.9c1.8-1.8,4.9-1.8,6.7,0
					c1.8,1.9,1.8,4.9,0,6.7c-1.8,1.9-4.9,1.9-6.7,0C35.3-224,35.3-227.1,37.2-228.9z"/>
				<path class="st3" d="M152.8-334.4c-2.6-1.8-6.1-1.1-7.8,1.5c-0.4,0.6-14.6,26.4-23.2,42c-1-0.6-2-1-3.1-1.4
					c0,0,6.1-28.9,6.3-30.7c0.1-1.5-0.4-3-1.3-4.1c-1-1.1-2.3-1.8-3.8-1.9c-1.5-0.1-2.9,0.4-4.1,1.3c-1.1,1-1.8,2.3-1.9,3.8
					c-0.1,1.8,0.6,31.1,0.6,31.1c-1.4,0.1-2.8,0.4-4.1,0.9c0,0-17.2-25.9-18.2-27.1c-0.9-1.2-2.2-2-3.7-2.2c-1.5-0.2-3,0.2-4.2,1.1
					c-0.1,0.1-0.2,0.1-0.3,0.2c-2.3,1.9-2.6,5.3-0.8,7.7c0.9,1.2,22.5,23.5,22.5,23.5c-0.8,0.9-1.4,1.8-1.9,2.8
					c0,0-46.5-21.4-48.6-22.1c-1.9-0.7-4-0.3-5.6,1c-0.7,0.6-1.3,1.5-1.6,2.4c-0.5,1.4-0.4,2.9,0.2,4.3c0.7,1.4,1.8,2.4,3.2,2.9
					c2,0.7,51.4,14,51.4,14c-0.2,0.5-0.2,1.1-0.3,1.6c-14.6-2.8-36.5-7-37.6-7.1c-3.1-0.2-5.8,2.1-6,5.2c-0.2,3.1,2.1,5.8,5.2,6
					c1.1,0.1,23.5-0.7,38.4-1.2c0,0.2,0,0.5,0.1,0.7c0,0-25,4.4-26.7,5c-0.7,0.2-1.4,0.6-1.9,1.1c-1.7,1.5-2.4,3.8-1.7,6
					c0.5,1.4,1.5,2.6,2.8,3.3c1.3,0.7,2.9,0.8,4.3,0.3c1.8-0.6,24.5-11.8,24.5-11.8c0.5,0.9,1,1.8,1.7,2.6c0.2,0.2,0.4,0.4,0.6,0.6
					c0,0-26.7,27.4-27.9,28.9c-1.9,2.4-1.5,6,0.9,7.9c2.1,1.7,5.1,1.6,7.2-0.1c0.3-0.2,0.5-0.5,0.8-0.8c1.2-1.5,21.8-33.8,21.8-33.8
					c1.4,0.8,3,1.4,4.5,1.6c0,0-6.4,32.8-6.6,35c-0.1,1.5,0.4,2.9,1.3,4.1c1,1.1,2.3,1.8,3.8,1.9c1.5,0.1,2.9-0.4,4.1-1.3
					c1.1-1,1.8-2.3,1.9-3.8c0.2-2.2-2-35.7-2-35.7c0.6,0,1.3-0.1,1.9-0.2c3.4,17.1,9.2,46.3,9.4,47.1c0.9,3,4,4.7,7,3.8
					c3-0.9,4.7-4,3.8-7c-0.2-0.7-11.4-28.4-17.9-44.5c0.8-0.3,1.7-0.8,2.5-1.3c0,0,11.9,19.7,13.1,21.1c2,2.4,5.6,2.6,7.9,0.6
					c2.4-2,2.6-5.6,0.6-7.9c-1.2-1.4-18.9-16.3-18.9-16.3c0.7-0.9,1.3-1.9,1.8-2.9c0,0,33.7,16.9,35.7,17.6c1.9,0.7,4,0.3,5.6-1
					c0.7-0.6,1.3-1.4,1.6-2.4c1.1-2.9-0.5-6.1-3.4-7.2c-2.1-0.7-38.7-9.5-38.7-9.5c0.4-1.9,0.4-3.8,0-5.7c0,0,30.9-10.9,32.3-11.6
					c0.5-0.2,0.9-0.5,1.3-0.8c1.9-1.6,2.5-4.4,1.4-6.7c-0.6-1.4-1.8-2.4-3.2-2.9c-1.4-0.5-2.9-0.4-4.3,0.2
					c-1.4,0.7-29.9,16.8-29.9,16.8c-0.1-0.2-0.2-0.3-0.4-0.5c-0.4-0.4-0.8-0.8-1.2-1.2c11.3-13.7,30-36.5,30.4-37.1
					C156-329.2,155.4-332.7,152.8-334.4z M122.3-286c3.3,3.9,2.9,9.8-1,13.1c-3.9,3.3-9.8,2.9-13.1-1c-3.3-3.9-2.9-9.8,1-13.1
					C113.1-290.4,118.9-289.9,122.3-286z"/>
				<path class="st4" d="M98.3-211c-2.1-1.1-4.6-0.2-5.7,1.8c-0.2,0.5-8.3,21.2-13.2,33.7c-0.8-0.3-1.6-0.6-2.4-0.7
					c0,0,1.8-22.2,1.7-23.5c-0.1-1.1-0.6-2.2-1.4-2.9c-0.8-0.8-1.9-1.1-3.1-1.1s-2.2,0.6-2.9,1.4c-0.8,0.8-1.1,1.9-1.1,3.1
					c0.1,1.3,3.5,23.2,3.5,23.2c-1,0.2-2,0.6-3,1.1c0,0-15.4-17.6-16.2-18.5c-0.8-0.8-1.9-1.2-3-1.3s-2.2,0.4-3,1.2
					c-0.1,0.1-0.1,0.1-0.2,0.2c-1.5,1.7-1.4,4.2,0.1,5.8c0.8,0.8,19.1,15.4,19.1,15.4c-0.5,0.7-0.9,1.5-1.2,2.3
					c0,0-36.9-11.5-38.5-11.8c-1.5-0.3-3,0.2-4,1.3c-0.5,0.6-0.8,1.2-1,1.9c-0.2,1.1,0,2.2,0.6,3.2c0.6,0.9,1.6,1.6,2.7,1.9
					c1.6,0.3,39.8,5.4,39.8,5.4c-0.1,0.4-0.1,0.8-0.1,1.2c-11.2-0.7-28-1.7-28.8-1.6c-2.3,0.1-4.1,2.1-4,4.5c0.1,2.3,2.1,4.1,4.5,4
					c0.8,0,17.5-2.8,28.6-4.6c0,0.2,0.1,0.4,0.1,0.5c0,0-18.2,5.8-19.5,6.4c-0.5,0.2-1,0.6-1.3,1c-1.2,1.3-1.4,3.1-0.7,4.7
					c0.5,1,1.3,1.8,2.4,2.2c1.1,0.4,2.2,0.3,3.2-0.2c1.2-0.6,17.2-11.2,17.2-11.2c0.4,0.6,0.9,1.3,1.6,1.8c0.2,0.1,0.3,0.3,0.5,0.4
					c0,0-17.3,23.1-18,24.4c-1.2,2-0.5,4.6,1.5,5.8c1.7,1,4,0.7,5.3-0.8c0.2-0.2,0.3-0.4,0.5-0.7c0.8-1.3,13-27.4,13-27.4
					c1.1,0.5,2.3,0.7,3.6,0.7c0,0-1.6,25.2-1.5,26.8c0.1,1.1,0.6,2.2,1.4,2.9c0.8,0.8,1.9,1.1,3.1,1.1c1.1-0.1,2.2-0.6,2.9-1.4
					c0.8-0.8,1.1-1.9,1.1-3.1c-0.1-1.6-5-26.5-5-26.5c0.5-0.1,0.9-0.2,1.4-0.4c4.2,12.4,11.4,33.7,11.6,34.3c1,2.1,3.5,3.1,5.6,2.1
					c2.1-1,3.1-3.5,2.1-5.6c-0.2-0.5-11.3-20.1-17.8-31.5c0.6-0.3,1.2-0.7,1.7-1.2c0,0,10.8,13.6,11.8,14.5c1.7,1.6,4.4,1.4,6-0.3
					c1.6-1.7,1.4-4.4-0.3-6c-1.1-1-15.7-10.4-15.7-10.4c0.5-0.8,0.8-1.5,1-2.4c0,0,26.8,9.4,28.4,9.7c1.5,0.3,3.1-0.2,4.1-1.3
					c0.5-0.5,0.8-1.2,1-1.9c0.5-2.3-0.9-4.6-3.2-5.1c-1.6-0.4-29.9-3.3-29.9-3.3c0.1-1.4-0.1-2.9-0.6-4.3c0,0,22-11.2,23-11.8
					c0.3-0.2,0.6-0.5,0.9-0.7c1.3-1.4,1.4-3.5,0.4-5.1c-0.6-1-1.6-1.6-2.7-1.9c-1.1-0.2-2.2,0-3.2,0.6c-1,0.6-20.7,15.5-20.7,15.5
					c-0.1-0.1-0.2-0.2-0.3-0.3c-0.3-0.3-0.7-0.5-1-0.8c7.1-11.4,18.9-30.2,19.1-30.7C101.2-207.3,100.4-209.9,98.3-211z M80.2-171.8
					c2.9,2.6,3.1,7,0.5,9.9c-2.6,2.9-7,3.1-9.9,0.5s-3.1-7-0.5-9.9C72.8-174.1,77.3-174.4,80.2-171.8z"/>
			</g>
			<g>
				<path class="st1" d="M373-107.5c-0.8-2.2-3.3-3.4-5.5-2.6c-0.5,0.2-12.7,6.9-25,12.7c-0.4-0.8-0.8-1.6-1.3-2.2
					c0,0,35.6-37.6,36.5-38.7c0.7-0.9,1.1-2,1-3.1c-0.1-1.1-0.6-2.2-1.5-2.9s-2-1.1-3.1-1c-1.1,0.1-2.2,0.6-2.9,1.5
					c-0.9,1-32.4,42-32.4,42c-0.9-0.6-1.9-1-3-1.2c0,0,0.8-23.7,0.8-24.9c0-1.1-0.5-2.2-1.3-3s-1.9-1.2-3.1-1.2c-0.1,0-0.2,0-0.2,0
					c-2.3,0.2-4,2.1-3.9,4.4c0,1.2,3.5,24.6,3.5,24.6c-0.9,0.2-1.7,0.5-2.4,0.9c0,0-19.3-34-20.2-35.4c-0.9-1.3-2.4-2-3.9-1.8
					c-0.7,0.1-1.5,0.3-2.1,0.8c-0.9,0.6-1.6,1.6-1.8,2.8c-0.2,1.1,0,2.3,0.7,3.2c0.9,1.4,25.6,31.6,25.6,31.6
					c-0.3,0.3-0.6,0.6-0.9,0.9c-7.8-8.3-19.5-20.6-20.2-21.1c-1.8-1.5-4.5-1.3-6,0.5c-1.5,1.8-1.3,4.5,0.5,6.1
					c0.6,0.6,14.9,10.1,24.4,16.4c-0.1,0.2-0.2,0.3-0.3,0.5c0,0-34.9-14-36.2-14.4c-0.5-0.2-1.1-0.2-1.7-0.2c-1.7,0.1-3.2,1.3-3.7,3
					c-0.4,1.1-0.2,2.3,0.3,3.3c0.5,1,1.4,1.8,2.5,2.1c1.3,0.4,37.8,9.2,37.8,9.2c-0.1,0.8-0.2,1.6-0.1,2.4c0,0.2,0.1,0.4,0.1,0.7
					c0,0-28.8,5.1-30.2,5.5c-2.3,0.6-3.6,3-3,5.3c0.6,2,2.5,3.3,4.5,3.1c0.3,0,0.5-0.1,0.8-0.1c1.4-0.4,28.6-11.2,28.6-11.2
					c0.5,1.1,1.2,2.1,2.1,3c0,0-33.8,35.5-34.9,36.8c-0.7,0.9-1.1,2-1,3.1c0.1,1.1,0.6,2.2,1.5,2.9c0.9,0.7,2,1.1,3.1,1
					s2.2-0.6,2.9-1.5c1.1-1.3,29.9-41.1,29.9-41.1c0.4,0.3,0.9,0.5,1.3,0.7c-5.5,12.1-15,32.8-15.1,33.3c-0.8,2.2,0.4,4.7,2.7,5.5
					c2.2,0.8,4.7-0.4,5.5-2.7c0.2-0.5,5.6-22.7,8.7-35.6c0.7,0.2,1.4,0.3,2.1,0.3c0,0-0.9,23.8-0.7,25.3c0.2,2.4,2.3,4.1,4.6,3.9
					c2.4-0.2,4.1-2.3,3.9-4.6c-0.1-1.5-5-24.9-5-24.9c0.9-0.2,1.7-0.6,2.4-1c0,0,20.2,35.5,21.2,36.9c0.9,1.3,2.4,2,3.9,1.9
					c0.7-0.1,1.5-0.3,2.1-0.7c2-1.3,2.5-4,1.1-6c-0.9-1.4-26.7-33.2-26.7-33.2c1.1-1,2-2.2,2.5-3.6c0,0,34.5,9,35.7,9.3
					c0.4,0.1,0.8,0.1,1.2,0.1c1.9-0.2,3.5-1.6,3.9-3.5c0.2-1.1,0-2.3-0.7-3.2c-0.6-0.9-1.6-1.6-2.8-1.8c-1.2-0.2-36.5-4.9-36.5-4.9
					c0-0.2,0-0.3,0-0.5c0-0.4-0.1-0.8-0.2-1.3c13.1-3.5,26.8-6.3,27.3-6.4C372.7-102.8,373.8-105.2,373-107.5z M340.6-94.1
					c0.3,3.9-2.6,7.3-6.5,7.7s-7.3-2.6-7.7-6.5c-0.3-3.9,2.6-7.3,6.5-7.7C336.8-100.9,340.3-98,340.6-94.1z"/>
				<path class="st2" d="M351-49.3c-0.8,1.4-0.3,3.1,1,3.9c0.3,0.2,8.5,3.3,16.8,7.1c-0.3,0.5-0.5,1.1-0.6,1.6c0,0-30.3-2-31.2-2
					c-0.8,0-1.5,0.3-2,0.8s-0.8,1.3-0.8,2c0,0.8,0.3,1.5,0.8,2c0.5,0.5,1.3,0.8,2,0.8c0.9,0,31.2-1.5,31.2-1.5
					c0.1,0.7,0.3,1.4,0.6,2c0,0-12.5,9.8-13.1,10.3c-0.6,0.5-0.9,1.2-1,2c0,0.8,0.2,1.5,0.7,2.1c0,0,0.1,0.1,0.1,0.1
					c1.1,1.1,2.8,1.1,3.9,0.1c0.6-0.5,11.1-12.4,11.1-12.4c0.5,0.4,1,0.7,1.5,0.9c0,0-9.1,24.6-9.4,25.6c-0.3,1,0,2.1,0.7,2.8
					c0.4,0.4,0.8,0.6,1.3,0.7c0.7,0.2,1.5,0.1,2.2-0.3c0.7-0.4,1.1-1,1.4-1.7c0.3-1.1,5.1-26.8,5.1-26.8c0.3,0,0.6,0.1,0.8,0.1
					c-0.9,7.6-2.1,18.9-2.1,19.5c0,1.6,1.3,2.9,2.9,2.9s2.9-1.3,2.9-2.9c0-0.6-1.3-12-2.1-19.5c0.1,0,0.2,0,0.4-0.1
					c0,0,7.9,23.9,8.3,24.8c0.1,0.4,0.4,0.7,0.6,0.9c0.8,0.8,2,1.1,3.1,0.6c0.7-0.3,1.3-0.8,1.6-1.5c0.3-0.7,0.3-1.5,0-2.2
					c-0.4-0.9-11.6-23.3-11.6-23.3c0.5-0.3,0.9-0.6,1.3-1c0.1-0.1,0.2-0.2,0.3-0.3c0,0,15,12.5,15.9,13.1c1.3,0.9,3.1,0.5,4-0.8
					c0.8-1.1,0.6-2.7-0.4-3.6c-0.1-0.1-0.3-0.2-0.4-0.4c-0.8-0.6-18.1-9.8-18.1-9.8c0.4-0.8,0.6-1.6,0.6-2.4c0,0,27.1,2,28.2,2
					c0.8,0,1.5-0.3,2-0.8s0.8-1.3,0.8-2c0-0.8-0.3-1.5-0.8-2s-1.3-0.8-2-0.8c-1.1,0-28.2,2.5-28.2,2.5c0-0.3-0.1-0.6-0.2-1
					c8.6-2.4,23.3-6.5,23.6-6.6c1.5-0.6,2.2-2.2,1.6-3.7c-0.6-1.5-2.2-2.2-3.7-1.6c-0.4,0.1-14,6.9-22,10.9
					c-0.2-0.4-0.5-0.8-0.8-1.2c0,0,12.6-9.9,13.2-10.5c1.1-1.1,1.1-3,0-4.1s-3-1.1-4.1,0c-0.7,0.7-10.6,13.3-10.6,13.3
					c-0.5-0.3-1-0.6-1.6-0.8c0,0,7.8-19.4,8.1-20.5c0.3-1,0-2.1-0.7-2.8c-0.4-0.4-0.8-0.6-1.3-0.7c-1.5-0.4-3.1,0.5-3.5,2
					c-0.3,1.1-3.8,21.7-3.8,21.7c-1-0.1-2-0.1-2.9,0.2c0,0-10.3-21.6-10.7-22.3c-0.1-0.2-0.3-0.4-0.5-0.6c-0.9-0.9-2.3-1.1-3.5-0.5
					c-0.7,0.4-1.1,1-1.4,1.7c-0.2,0.7-0.1,1.5,0.3,2.2c0.4,0.7,13.3,20.8,13.3,20.8c-0.1,0.1-0.2,0.1-0.2,0.2
					c-0.2,0.2-0.4,0.4-0.6,0.6c-7.4-5.2-14.3-10.8-14.6-11C353.6-51.2,351.8-50.7,351-49.3z M371.4-38.7c1.9-1.9,4.9-1.9,6.7,0
					s1.9,4.9,0,6.7c-1.9,1.9-4.9,1.9-6.7,0C369.6-33.9,369.6-36.9,371.4-38.7z"/>
				<path class="st3" d="M487-144.3c-2.5-1.8-6.1-1.1-7.8,1.4c-0.4,0.6-14.6,26.4-23.2,42c-1-0.6-2-1.1-3.1-1.4
					c0,0,6.1-28.9,6.3-30.7c0.1-1.5-0.4-2.9-1.3-4.1s-2.3-1.8-3.8-1.9c-1.5-0.1-3,0.4-4.1,1.3c-1.1,1-1.8,2.3-2,3.8
					c-0.1,1.8,0.6,31.1,0.6,31.1c-1.4,0.1-2.8,0.4-4.1,0.9c0,0-17.2-25.9-18.2-27.1c-0.9-1.2-2.2-2-3.7-2.2c-1.5-0.2-3,0.2-4.2,1.1
					c-0.1,0.1-0.2,0.1-0.3,0.2c-2.3,1.9-2.6,5.3-0.8,7.7c0.9,1.2,22.5,23.5,22.5,23.5c-0.8,0.9-1.4,1.8-1.9,2.8
					c0,0-46.5-21.4-48.6-22.1c-1.9-0.7-4-0.3-5.6,1c-0.7,0.6-1.3,1.5-1.6,2.4c-0.5,1.4-0.4,2.9,0.2,4.3c0.6,1.4,1.8,2.4,3.2,2.9
					c2,0.7,51.4,14,51.4,14c-0.1,0.5-0.2,1.1-0.3,1.6c-14.6-2.8-36.5-7-37.6-7.1c-3.1-0.2-5.8,2.1-6,5.2s2.1,5.8,5.2,6.1
					c1.1,0.1,23.5-0.7,38.4-1.2c0,0.2,0,0.5,0.1,0.7c0,0-25,4.4-26.7,5c-0.7,0.2-1.4,0.6-1.9,1.1c-1.7,1.5-2.4,3.8-1.7,6
					c0.5,1.4,1.5,2.6,2.8,3.3c1.3,0.7,2.9,0.8,4.3,0.3c1.8-0.6,24.5-11.8,24.5-11.8c0.5,0.9,1,1.8,1.7,2.6c0.2,0.2,0.4,0.4,0.6,0.6
					c0,0-26.7,27.4-27.9,28.9c-1.9,2.4-1.5,6,0.9,7.9c2.1,1.7,5.1,1.6,7.1-0.1c0.3-0.2,0.5-0.5,0.8-0.8c1.2-1.5,21.9-33.8,21.9-33.8
					c1.4,0.8,3,1.4,4.5,1.6c0,0-6.4,32.8-6.6,35c-0.1,1.5,0.4,3,1.3,4.1c1,1.1,2.3,1.8,3.8,2c1.5,0.1,3-0.4,4.1-1.3
					c1.1-1,1.8-2.3,2-3.8c0.2-2.1-2-35.7-2-35.7c0.6,0,1.3-0.1,1.9-0.2c3.4,17,9.2,46.3,9.4,47c0.9,3,4,4.7,7,3.8s4.7-4,3.8-7
					c-0.2-0.7-11.4-28.4-17.9-44.5c0.9-0.3,1.7-0.8,2.5-1.3c0,0,11.9,19.7,13.1,21.1c2,2.4,5.6,2.6,7.9,0.6c2.4-2,2.6-5.6,0.6-7.9
					c-1.2-1.5-18.9-16.3-18.9-16.3c0.7-0.9,1.3-1.9,1.8-2.9c0,0,33.6,16.9,35.7,17.6c1.9,0.7,4,0.3,5.6-1c0.7-0.6,1.3-1.4,1.6-2.4
					c1-2.9-0.5-6.1-3.4-7.2c-2-0.7-38.7-9.4-38.7-9.4c0.4-1.9,0.4-3.8,0-5.7c0,0,30.9-10.9,32.3-11.6c0.5-0.2,0.9-0.5,1.3-0.8
					c1.9-1.6,2.5-4.4,1.4-6.7c-0.6-1.4-1.8-2.4-3.2-2.9s-2.9-0.4-4.3,0.2c-1.4,0.7-29.9,16.8-29.9,16.8c-0.1-0.2-0.2-0.3-0.4-0.5
					c-0.4-0.4-0.8-0.8-1.2-1.2c11.3-13.7,30-36.5,30.4-37.1C490.2-139,489.6-142.5,487-144.3z M456.5-95.8c3.3,3.9,2.9,9.8-1,13.1
					c-3.9,3.3-9.8,2.9-13.1-1c-3.3-3.9-2.9-9.8,1-13.1C447.3-100.2,453.2-99.7,456.5-95.8z"/>
			</g>
			<g>
				<path class="st1" d="M205.9-202.6c-0.8-2.2-3.3-3.4-5.5-2.6c-0.5,0.2-12.7,6.9-25,12.7c-0.4-0.8-0.8-1.6-1.3-2.2
					c0,0,35.6-37.6,36.5-38.7c0.7-0.9,1.1-2,1-3.1c-0.1-1.2-0.6-2.2-1.5-2.9c-0.9-0.7-2-1.1-3.1-1c-1.1,0.1-2.2,0.6-2.9,1.5
					c-0.9,1-32.4,42-32.4,42c-0.9-0.6-1.9-1-2.9-1.2c0,0,0.8-23.7,0.8-24.9c0-1.2-0.5-2.2-1.3-3c-0.8-0.8-1.9-1.2-3.1-1.2
					c-0.1,0-0.2,0-0.2,0c-2.3,0.2-4,2.1-3.9,4.4c0,1.2,3.5,24.6,3.5,24.6c-0.9,0.2-1.7,0.5-2.4,0.9c0,0-19.3-34-20.2-35.4
					c-0.9-1.3-2.4-2-3.9-1.8c-0.7,0.1-1.5,0.3-2.1,0.8c-0.9,0.6-1.6,1.6-1.8,2.8c-0.2,1.1,0,2.3,0.7,3.2
					c0.9,1.3,25.6,31.6,25.6,31.6c-0.3,0.3-0.6,0.6-0.9,0.9c-7.8-8.3-19.5-20.6-20.2-21.2c-1.8-1.5-4.5-1.3-6.1,0.5
					c-1.5,1.8-1.3,4.5,0.5,6.1c0.6,0.6,14.9,10.1,24.4,16.4c-0.1,0.2-0.2,0.3-0.3,0.5c0,0-34.9-14-36.2-14.4
					c-0.5-0.2-1.1-0.2-1.7-0.2c-1.7,0.2-3.2,1.3-3.7,3c-0.3,1.1-0.2,2.3,0.3,3.3c0.5,1,1.4,1.8,2.5,2.1c1.3,0.4,37.8,9.2,37.8,9.2
					c-0.1,0.8-0.2,1.6-0.1,2.4c0,0.2,0.1,0.4,0.1,0.7c0,0-28.8,5.1-30.2,5.5c-2.3,0.6-3.6,3-3,5.3c0.6,2,2.4,3.3,4.5,3.1
					c0.3,0,0.6-0.1,0.8-0.1c1.4-0.4,28.6-11.2,28.6-11.2c0.5,1.1,1.2,2.1,2.1,3c0,0-33.8,35.5-34.9,36.8c-0.7,0.9-1.1,2-1,3.1
					c0.1,1.1,0.6,2.2,1.5,2.9c0.9,0.7,2,1.1,3.1,1s2.2-0.6,2.9-1.5c1.1-1.3,29.9-41.1,29.9-41.1c0.4,0.3,0.9,0.5,1.3,0.7
					c-5.5,12.1-15,32.8-15.1,33.3c-0.8,2.2,0.4,4.7,2.7,5.5c2.2,0.8,4.7-0.4,5.5-2.7c0.2-0.5,5.6-22.7,8.7-35.6
					c0.7,0.2,1.4,0.3,2.1,0.3c0,0-0.9,23.8-0.7,25.3c0.2,2.4,2.3,4.1,4.6,3.9s4.1-2.3,3.9-4.6c-0.1-1.5-5-24.9-5-24.9
					c0.9-0.2,1.7-0.6,2.4-1c0,0,20.2,35.5,21.2,36.9c0.9,1.3,2.4,2,3.9,1.9c0.7-0.1,1.4-0.3,2.1-0.7c1.9-1.3,2.5-4,1.1-6
					c-0.9-1.4-26.7-33.2-26.7-33.2c1.1-1,2-2.2,2.5-3.6c0,0,34.5,9,35.7,9.3c0.4,0.1,0.8,0.1,1.2,0.1c1.9-0.2,3.5-1.6,3.9-3.5
					c0.2-1.1,0-2.3-0.7-3.2c-0.6-0.9-1.6-1.6-2.8-1.8c-1.2-0.2-36.6-4.9-36.6-4.9c0-0.2,0-0.3,0-0.5c0-0.4-0.1-0.8-0.2-1.3
					c13.1-3.5,26.8-6.3,27.3-6.4C205.6-197.9,206.7-200.3,205.9-202.6z M173.5-189.1c0.3,3.9-2.6,7.3-6.5,7.7s-7.3-2.6-7.7-6.5
					c-0.3-3.9,2.6-7.3,6.5-7.7C169.7-195.9,173.2-193,173.5-189.1z"/>
				<path class="st2" d="M183.9-144.4c-0.8,1.4-0.3,3.1,1.1,3.9c0.3,0.2,8.5,3.3,16.8,7.1c-0.3,0.5-0.5,1.1-0.6,1.6
					c0,0-30.3-2-31.2-2c-0.8,0-1.5,0.3-2,0.8s-0.8,1.3-0.8,2c0,0.8,0.3,1.5,0.8,2c0.5,0.5,1.3,0.8,2,0.8c0.9,0,31.2-1.5,31.2-1.5
					c0.1,0.7,0.3,1.4,0.6,2c0,0-12.5,9.8-13.1,10.3c-0.6,0.5-0.9,1.2-1,2c-0.1,0.8,0.2,1.5,0.7,2.1c0,0,0.1,0.1,0.1,0.1
					c1.1,1.1,2.8,1.1,3.9,0.1c0.6-0.5,11.1-12.4,11.1-12.4c0.5,0.4,1,0.7,1.5,0.9c0,0-9.1,24.6-9.4,25.6c-0.3,1,0,2.1,0.7,2.8
					c0.4,0.4,0.8,0.6,1.3,0.7c0.7,0.2,1.5,0.1,2.2-0.3c0.7-0.4,1.1-1,1.4-1.7c0.3-1.1,5.1-26.8,5.1-26.8c0.3,0.1,0.6,0.1,0.8,0.1
					c-0.9,7.6-2.1,18.9-2.1,19.5c0,1.6,1.3,2.9,2.9,2.9c1.6,0,2.9-1.3,2.9-2.9c0-0.6-1.3-12-2.1-19.5c0.1,0,0.2,0,0.4-0.1
					c0,0,7.9,23.9,8.3,24.8c0.1,0.4,0.4,0.7,0.6,0.9c0.8,0.8,2.1,1.1,3.1,0.6c0.7-0.3,1.3-0.8,1.6-1.6c0.3-0.7,0.3-1.5,0-2.2
					c-0.4-0.9-11.6-23.3-11.6-23.3c0.5-0.3,0.9-0.6,1.3-1c0.1-0.1,0.2-0.2,0.3-0.3c0,0,15,12.5,15.9,13.1c1.3,0.9,3.1,0.5,4-0.8
					c0.8-1.1,0.6-2.7-0.4-3.6c-0.1-0.1-0.3-0.2-0.4-0.4c-0.8-0.6-18.1-9.8-18.1-9.8c0.4-0.7,0.6-1.6,0.6-2.4c0,0,27.1,2,28.2,2
					c0.8,0,1.5-0.3,2-0.8s0.8-1.3,0.8-2c0-0.8-0.3-1.5-0.8-2s-1.3-0.8-2-0.8c-1.1,0-28.2,2.4-28.2,2.4c0-0.3-0.1-0.6-0.2-1
					c8.6-2.4,23.3-6.5,23.6-6.6c1.5-0.6,2.2-2.2,1.6-3.7c-0.6-1.5-2.2-2.2-3.7-1.6c-0.4,0.1-14,6.9-22,10.9
					c-0.2-0.4-0.4-0.8-0.8-1.2c0,0,12.6-9.9,13.2-10.6c1.1-1.1,1.1-2.9,0-4.1c-1.1-1.1-2.9-1.1-4.1,0c-0.7,0.7-10.6,13.3-10.6,13.3
					c-0.5-0.3-1-0.6-1.6-0.8c0,0,7.8-19.4,8.1-20.5c0.3-1,0-2.1-0.7-2.8c-0.4-0.4-0.8-0.6-1.3-0.7c-1.5-0.4-3.1,0.5-3.5,2
					c-0.3,1.1-3.8,21.7-3.8,21.7c-1-0.1-2-0.1-2.9,0.2c0,0-10.3-21.6-10.7-22.3c-0.1-0.2-0.3-0.4-0.5-0.6c-0.9-0.9-2.3-1.1-3.4-0.5
					c-0.7,0.4-1.1,1-1.4,1.7c-0.2,0.7-0.1,1.5,0.3,2.2c0.4,0.7,13.3,20.8,13.3,20.8c-0.1,0.1-0.2,0.1-0.2,0.2
					c-0.2,0.2-0.4,0.4-0.6,0.6c-7.4-5.2-14.3-10.8-14.6-11C186.5-146.2,184.7-145.8,183.9-144.4z M204.3-133.8
					c1.9-1.9,4.9-1.9,6.7,0s1.9,4.9,0,6.7c-1.9,1.9-4.9,1.9-6.7,0C202.5-128.9,202.5-132,204.3-133.8z"/>
				<path class="st3" d="M319.9-239.4c-2.5-1.8-6.1-1.1-7.8,1.4c-0.4,0.6-14.6,26.4-23.2,42c-1-0.6-2-1.1-3.1-1.4
					c0,0,6.1-28.9,6.3-30.7c0.1-1.5-0.4-2.9-1.3-4.1s-2.3-1.8-3.8-1.9c-1.5-0.1-3,0.4-4.1,1.3c-1.1,1-1.8,2.3-2,3.8
					c-0.1,1.8,0.6,31.1,0.6,31.1c-1.4,0.1-2.8,0.4-4.1,0.9c0,0-17.2-25.9-18.2-27.1c-0.9-1.2-2.2-2-3.7-2.2c-1.5-0.2-3,0.2-4.2,1.1
					c-0.1,0.1-0.2,0.1-0.3,0.2c-2.3,1.9-2.6,5.3-0.8,7.7c0.9,1.2,22.5,23.5,22.5,23.5c-0.8,0.9-1.4,1.8-1.9,2.8
					c0,0-46.6-21.4-48.6-22.2c-1.9-0.7-4-0.3-5.6,1c-0.7,0.6-1.3,1.5-1.6,2.4c-0.5,1.4-0.4,2.9,0.2,4.3c0.6,1.4,1.8,2.4,3.2,2.9
					c2,0.7,51.4,14,51.4,14c-0.1,0.5-0.2,1.1-0.3,1.6c-14.6-2.8-36.5-7-37.6-7.1c-3.1-0.2-5.8,2.1-6.1,5.2s2.1,5.8,5.2,6.1
					c1.1,0.1,23.5-0.7,38.4-1.2c0,0.2,0,0.5,0.1,0.7c0,0-25,4.4-26.7,5c-0.7,0.2-1.4,0.6-1.9,1.1c-1.7,1.5-2.4,3.8-1.7,6
					c0.5,1.4,1.5,2.6,2.8,3.3c1.3,0.7,2.9,0.8,4.3,0.3c1.8-0.6,24.5-11.8,24.5-11.8c0.5,0.9,1,1.8,1.7,2.6c0.2,0.2,0.4,0.4,0.6,0.6
					c0,0-26.7,27.4-27.9,28.9c-1.9,2.4-1.5,6,0.9,7.9c2.1,1.7,5.1,1.6,7.1-0.1c0.3-0.2,0.5-0.5,0.8-0.8c1.2-1.5,21.9-33.8,21.9-33.8
					c1.4,0.8,3,1.4,4.5,1.6c0,0-6.4,32.8-6.6,35c-0.1,1.5,0.4,2.9,1.3,4.1c1,1.1,2.3,1.8,3.8,1.9c1.5,0.1,3-0.4,4.1-1.3
					c1.1-1,1.8-2.3,2-3.8c0.2-2.1-2-35.7-2-35.7c0.6,0,1.3-0.1,1.9-0.2c3.4,17.1,9.2,46.3,9.4,47c0.9,3,4,4.7,7,3.8s4.7-4,3.8-7
					c-0.2-0.7-11.4-28.4-17.9-44.5c0.9-0.3,1.7-0.8,2.5-1.3c0,0,11.9,19.7,13.1,21.1c2,2.4,5.6,2.6,7.9,0.6c2.4-2,2.6-5.6,0.6-7.9
					c-1.2-1.4-18.9-16.3-18.9-16.3c0.7-0.9,1.3-1.9,1.8-2.9c0,0,33.6,16.9,35.7,17.6c1.9,0.7,4,0.3,5.6-1c0.7-0.6,1.3-1.4,1.6-2.4
					c1-2.9-0.5-6.1-3.4-7.2c-2-0.7-38.7-9.4-38.7-9.4c0.4-1.9,0.4-3.8,0-5.7c0,0,30.9-10.9,32.3-11.6c0.5-0.2,0.9-0.5,1.3-0.8
					c1.9-1.6,2.5-4.4,1.4-6.7c-0.6-1.4-1.8-2.4-3.2-2.9c-1.4-0.5-2.9-0.4-4.3,0.2c-1.4,0.7-29.9,16.8-29.9,16.8
					c-0.1-0.2-0.2-0.3-0.4-0.5c-0.4-0.4-0.8-0.8-1.2-1.2c11.3-13.7,30-36.5,30.4-37.1C323.1-234.1,322.5-237.6,319.9-239.4z
					 M289.4-190.9c3.3,3.9,2.9,9.8-1,13.1c-3.9,3.3-9.8,2.9-13.1-1c-3.3-3.9-2.9-9.8,1-13.1C280.2-195.3,286-194.8,289.4-190.9z"/>
				<path class="st4" d="M265.4-115.9c-2.1-1.1-4.6-0.2-5.7,1.8c-0.2,0.5-8.3,21.1-13.2,33.7c-0.8-0.3-1.6-0.6-2.4-0.7
					c0,0,1.8-22.2,1.7-23.5c-0.1-1.1-0.6-2.2-1.4-2.9s-1.9-1.1-3.1-1.1c-1.1,0.1-2.2,0.6-2.9,1.4c-0.8,0.8-1.1,1.9-1.1,3.1
					c0.1,1.3,3.5,23.2,3.5,23.2c-1,0.2-2,0.6-3,1.1c0,0-15.4-17.6-16.2-18.5c-0.8-0.8-1.9-1.2-3-1.3s-2.2,0.4-3,1.2
					c-0.1,0.1-0.1,0.1-0.2,0.2c-1.5,1.7-1.4,4.2,0.1,5.8c0.8,0.8,19.1,15.4,19.1,15.4c-0.5,0.7-0.9,1.5-1.2,2.3
					c0,0-36.9-11.5-38.5-11.8c-1.5-0.3-3,0.2-4.1,1.3c-0.5,0.6-0.8,1.2-1,1.9c-0.2,1.1,0,2.2,0.6,3.2c0.6,0.9,1.6,1.6,2.7,1.8
					c1.6,0.3,39.8,5.4,39.8,5.4c-0.1,0.4-0.1,0.8-0.1,1.2c-11.2-0.7-28-1.7-28.8-1.6c-2.3,0.1-4.1,2.1-4,4.5s2.1,4.1,4.5,4
					c0.8,0,17.5-2.8,28.6-4.6c0,0.2,0.1,0.4,0.1,0.5c0,0-18.2,5.8-19.5,6.4c-0.5,0.2-1,0.6-1.3,1c-1.1,1.3-1.4,3.1-0.7,4.7
					c0.5,1,1.3,1.8,2.4,2.2s2.2,0.3,3.2-0.2c1.2-0.6,17.2-11.2,17.2-11.2c0.4,0.6,0.9,1.3,1.6,1.8c0.2,0.1,0.3,0.3,0.5,0.4
					c0,0-17.3,23.1-18.1,24.4c-1.2,2-0.6,4.6,1.5,5.8c1.7,1,4,0.7,5.3-0.8c0.2-0.2,0.4-0.4,0.5-0.7c0.8-1.3,13-27.4,13-27.4
					c1.1,0.5,2.3,0.7,3.6,0.7c0,0-1.6,25.2-1.5,26.8c0.1,1.1,0.6,2.2,1.4,2.9c0.8,0.8,1.9,1.1,3.1,1.1s2.2-0.5,2.9-1.4
					c0.8-0.8,1.1-1.9,1.1-3.1c-0.1-1.6-5-26.5-5-26.5c0.5-0.1,0.9-0.2,1.4-0.4c4.2,12.4,11.4,33.8,11.6,34.3c1,2.1,3.5,3.1,5.6,2.1
					c2.1-1,3.1-3.5,2.1-5.6c-0.2-0.5-11.3-20.1-17.8-31.5c0.6-0.3,1.2-0.7,1.7-1.2c0,0,10.8,13.5,11.9,14.5c1.7,1.6,4.4,1.4,6-0.3
					s1.4-4.4-0.3-6c-1.1-1-15.7-10.4-15.7-10.4c0.5-0.8,0.8-1.5,1-2.4c0,0,26.8,9.4,28.4,9.7c1.5,0.3,3-0.2,4.1-1.3
					c0.5-0.5,0.8-1.2,1-1.9c0.5-2.3-0.9-4.5-3.2-5.1c-1.6-0.4-29.9-3.3-29.9-3.3c0.1-1.5-0.1-2.9-0.6-4.3c0,0,22-11.2,23-11.8
					c0.3-0.2,0.6-0.5,0.9-0.7c1.3-1.4,1.5-3.5,0.4-5.1c-0.6-1-1.6-1.6-2.7-1.9c-1.1-0.2-2.2,0-3.2,0.6c-1,0.6-20.7,15.5-20.7,15.5
					c-0.1-0.1-0.2-0.2-0.3-0.3c-0.3-0.3-0.6-0.5-1-0.8c7.1-11.4,18.9-30.2,19.1-30.7C268.3-112.3,267.5-114.8,265.4-115.9z
					 M247.3-76.7c2.9,2.6,3.1,7,0.5,9.9c-2.6,2.9-7,3.1-9.9,0.5s-3.1-7-0.5-9.9C239.9-79,244.4-79.3,247.3-76.7z"/>
			</g>
			<g>
				<path class="st2" d="M16.8-49.3c-0.8,1.4-0.3,3.1,1,3.9c0.3,0.2,8.5,3.3,16.8,7.1c-0.3,0.5-0.5,1.1-0.6,1.6c0,0-30.3-2-31.2-2
					c-0.8,0-1.5,0.3-2,0.8c-0.6,0.6-0.9,1.3-0.9,2s0.3,1.5,0.8,2c0.5,0.5,1.3,0.8,2,0.8c0.9,0,31.2-1.5,31.2-1.5
					c0.1,0.7,0.3,1.4,0.6,2c0,0-12.5,9.8-13.1,10.3c-0.6,0.5-0.9,1.2-1,2c0,0.8,0.2,1.5,0.7,2.1c0,0,0.1,0.1,0.1,0.1
					c1.1,1.1,2.8,1.1,3.9,0.1c0.6-0.5,11.1-12.4,11.1-12.4c0.5,0.4,1,0.7,1.5,0.9c0,0-9.1,24.6-9.4,25.6c-0.3,1,0,2.1,0.7,2.8
					c0.4,0.4,0.8,0.6,1.3,0.7c0.7,0.2,1.5,0.1,2.2-0.3c0.7-0.4,1.2-1,1.3-1.7c0.3-1.1,5.1-26.8,5.1-26.8c0.3,0,0.6,0.1,0.8,0.1
					C39.3-21.2,38-9.9,38-9.3c0,1.6,1.3,2.9,2.9,2.9s2.9-1.3,2.9-2.9c0-0.6-1.3-12-2.1-19.5c0.1,0,0.2,0,0.4-0.1
					c0,0,7.9,23.9,8.3,24.8c0.2,0.4,0.4,0.7,0.6,0.9c0.8,0.8,2,1.1,3.1,0.6c0.7-0.3,1.3-0.8,1.6-1.5c0.3-0.7,0.3-1.5,0-2.2
					c-0.4-0.9-11.6-23.3-11.6-23.3c0.5-0.3,0.9-0.6,1.3-1c0.1-0.1,0.2-0.2,0.3-0.3c0,0,15,12.5,15.9,13.1c1.3,0.9,3.1,0.5,4-0.8
					c0.8-1.1,0.6-2.7-0.3-3.6c-0.1-0.1-0.3-0.2-0.4-0.4c-0.8-0.6-18.1-9.8-18.1-9.8c0.4-0.8,0.6-1.6,0.6-2.4c0,0,27.1,2,28.2,2
					c0.8,0,1.5-0.3,2-0.8s0.8-1.3,0.8-2c0-0.8-0.3-1.5-0.8-2c-0.5-0.5-1.3-0.8-2-0.8c-1.1,0-28.2,2.5-28.2,2.5c0-0.3-0.1-0.6-0.2-1
					c8.6-2.4,23.3-6.5,23.6-6.6c1.5-0.6,2.2-2.2,1.6-3.7c-0.6-1.5-2.2-2.2-3.7-1.6c-0.3,0.1-14,6.9-22,10.9
					c-0.2-0.4-0.5-0.8-0.8-1.2c0,0,12.6-9.9,13.2-10.5c1.1-1.1,1.1-3,0-4.1s-3-1.1-4.1,0c-0.7,0.7-10.6,13.3-10.6,13.3
					c-0.5-0.3-1-0.6-1.6-0.8c0,0,7.8-19.4,8.1-20.5c0.3-1,0-2.1-0.7-2.8c-0.3-0.4-0.8-0.6-1.3-0.7c-1.5-0.4-3.1,0.5-3.5,2
					c-0.3,1.1-3.8,21.7-3.8,21.7c-1-0.1-2-0.1-2.9,0.2c0,0-10.3-21.6-10.7-22.3c-0.1-0.2-0.3-0.4-0.5-0.6c-0.9-0.9-2.3-1.1-3.5-0.5
					c-0.7,0.4-1.1,1-1.4,1.7c-0.2,0.7-0.1,1.5,0.3,2.2c0.4,0.7,13.3,20.8,13.3,20.8C36-40.2,36-40.1,35.9-40
					c-0.2,0.2-0.4,0.4-0.6,0.6c-7.4-5.2-14.3-10.8-14.6-11C19.4-51.2,17.6-50.7,16.8-49.3z M37.2-38.7c1.8-1.9,4.9-1.9,6.7,0
					c1.8,1.9,1.8,4.9,0,6.7c-1.8,1.9-4.9,1.9-6.7,0C35.3-33.9,35.3-36.9,37.2-38.7z"/>
				<path class="st3" d="M152.8-144.3c-2.6-1.8-6.1-1.1-7.8,1.4c-0.4,0.6-14.6,26.4-23.2,42c-1-0.6-2-1.1-3.1-1.4
					c0,0,6.1-28.9,6.3-30.7c0.1-1.5-0.4-2.9-1.3-4.1c-1-1.1-2.3-1.8-3.8-1.9c-1.5-0.1-2.9,0.4-4.1,1.3c-1.1,1-1.8,2.3-1.9,3.8
					c-0.1,1.8,0.6,31.1,0.6,31.1c-1.4,0.1-2.8,0.4-4.1,0.9c0,0-17.2-25.9-18.2-27.1c-0.9-1.2-2.2-2-3.7-2.2c-1.5-0.2-3,0.2-4.2,1.1
					c-0.1,0.1-0.2,0.1-0.3,0.2c-2.3,1.9-2.6,5.3-0.8,7.7c0.9,1.2,22.5,23.5,22.5,23.5c-0.8,0.9-1.4,1.8-1.9,2.8
					c0,0-46.5-21.4-48.6-22.1c-1.9-0.7-4-0.3-5.6,1c-0.7,0.6-1.3,1.5-1.6,2.4c-0.5,1.4-0.4,2.9,0.2,4.3c0.7,1.4,1.8,2.4,3.2,2.9
					c2,0.7,51.4,14,51.4,14c-0.2,0.5-0.2,1.1-0.3,1.6c-14.6-2.8-36.5-7-37.6-7.1c-3.1-0.2-5.8,2.1-6,5.2c-0.2,3.1,2.1,5.8,5.2,6.1
					c1.1,0.1,23.5-0.7,38.4-1.2c0,0.2,0,0.5,0.1,0.7c0,0-25,4.4-26.7,5c-0.7,0.2-1.4,0.6-1.9,1.1c-1.7,1.5-2.4,3.8-1.7,6
					c0.5,1.4,1.5,2.6,2.8,3.3c1.3,0.7,2.9,0.8,4.3,0.3c1.8-0.6,24.5-11.8,24.5-11.8c0.5,0.9,1,1.8,1.7,2.6c0.2,0.2,0.4,0.4,0.6,0.6
					c0,0-26.7,27.4-27.9,28.9c-1.9,2.4-1.5,6,0.9,7.9c2.1,1.7,5.1,1.6,7.2-0.1c0.3-0.2,0.5-0.5,0.8-0.8c1.2-1.5,21.8-33.8,21.8-33.8
					c1.4,0.8,3,1.4,4.5,1.6c0,0-6.4,32.8-6.6,35c-0.1,1.5,0.4,3,1.3,4.1c1,1.1,2.3,1.8,3.8,2c1.5,0.1,2.9-0.4,4.1-1.3
					c1.1-1,1.8-2.3,1.9-3.8c0.2-2.1-2-35.7-2-35.7c0.6,0,1.3-0.1,1.9-0.2c3.4,17,9.2,46.3,9.4,47c0.9,3,4,4.7,7,3.8s4.7-4,3.8-7
					c-0.2-0.7-11.4-28.4-17.9-44.5c0.8-0.3,1.7-0.8,2.5-1.3c0,0,11.9,19.7,13.1,21.1c2,2.4,5.6,2.6,7.9,0.6c2.4-2,2.6-5.6,0.6-7.9
					c-1.2-1.5-18.9-16.3-18.9-16.3c0.7-0.9,1.3-1.9,1.8-2.9c0,0,33.7,16.9,35.7,17.6c1.9,0.7,4,0.3,5.6-1c0.7-0.6,1.3-1.4,1.6-2.4
					c1.1-2.9-0.5-6.1-3.4-7.2c-2.1-0.7-38.7-9.4-38.7-9.4c0.4-1.9,0.4-3.8,0-5.7c0,0,30.9-10.9,32.3-11.6c0.5-0.2,0.9-0.5,1.3-0.8
					c1.9-1.6,2.5-4.4,1.4-6.7c-0.6-1.4-1.8-2.4-3.2-2.9c-1.4-0.5-2.9-0.4-4.3,0.2c-1.4,0.7-29.9,16.8-29.9,16.8
					c-0.1-0.2-0.2-0.3-0.4-0.5c-0.4-0.4-0.8-0.8-1.2-1.2c11.3-13.7,30-36.5,30.4-37.1C156-139,155.4-142.5,152.8-144.3z M122.3-95.8
					c3.3,3.9,2.9,9.8-1,13.1c-3.9,3.3-9.8,2.9-13.1-1c-3.3-3.9-2.9-9.8,1-13.1C113.1-100.2,118.9-99.7,122.3-95.8z"/>
			</g>
		</g>
	</g>
</pattern>
<g id="圖層_4">
	<pattern  id="SVGID_1_" xlink:href="#憒" patternTransform="matrix(1 0 0 -1 -52.11 -17163.9609)">
	</pattern>
	<path class="st5" d="M794.8,1551H330.2c-55.6,0-100.7-45.1-100.7-100.7V985.7c0-55.6,45.1-100.7,100.7-100.7h464.7
		c55.6,0,100.7,45.1,100.7,100.7v464.7C895.5,1505.9,850.4,1551,794.8,1551z"/>
</g>
<g id="圖層_2_00000041264672348018123290000014204662432436514985_">
	
		<linearGradient id="SVGID_00000095298760794090321220000013699211637968544642_" gradientUnits="userSpaceOnUse" x1="762.3735" y1="1008.1288" x2="332.6544" y2="1437.8479" gradientTransform="matrix(1 0 0 -1 0 2436)">
		<stop  offset="0" style="stop-color:#1565FF"/>
		<stop  offset="0.3604" style="stop-color:#007ED4"/>
		<stop  offset="1" style="stop-color:#EDFF6A"/>
	</linearGradient>
	<path style="fill:url(#SVGID_00000095298760794090321220000013699211637968544642_);" d="M406.4,963.9l94.4,76.1
		c10.9,8.8,26.7,9.2,38,0.9l33.5-24.4c17.3-12.6,42.4-4.3,48,16l2.5,9.1c4.7,16.8,23.4,26.2,40.3,20l54.1-19.6
		c24.7-8.9,48.8,14.5,39.2,38.3l-16.8,41.8c-7,17.5,4.4,36.8,23.6,39.8l79,12.4c23.3,3.7,33.7,30.3,18.7,47.9l-79.8,93
		c-3.9,4.5-6.2,10-6.9,15.8l-9,84.8c-2.8,26.3-37.4,36.1-54.4,15.3l0,0c-11.3-13.8-32.7-15-45.6-2.6l-43.4,41.9
		c-15.6,15.1-42.2,9.7-50.2-10.2l-18.7-46.8c-6.6-16.5-26.7-23.8-43-15.4l-74.6,38.4c-27.2,14-56.4-15.2-40.8-40.9l4.5-7.4
		c9.5-15.7,2.2-35.8-15.3-42.4l-100.4-37.7c-17.3-6.5-24.7-26.3-15.6-41.9l94.3-162c3-5.2,4.4-11.2,3.8-17.2l-9.6-97.4
		C353.8,963.1,385.4,947,406.4,963.9z"/>
</g>
<g id="圖層_1_00000033366027637624091200000007395008342626633132_">
	<g>
		<g>
			
				<image style="overflow:visible;enable-background:new    ;" width="490" height="513" xlink:href="B238AA8C.png"  transform="matrix(0.6535 0 0 0.6535 402.375 1050.3589)">
			</image>
		</g>
	</g>
	<polygon class="st0" points="405,1110 409,1110 409,1110 	"/>
</g>
<g id="圖層_3">
	<g id="layer1" transform="translate(-288.27461,-216.28996)">
		<path id="polygon215" class="st7" d="M908.3,1547.6v-2.6l-0.7,0l-0.7,0l-0.7-0.1l-0.7-0.1l-0.7-0.1l-0.7-0.1l-0.7-0.1l-0.6-0.1
			l-0.7-0.2l-0.6-0.2l-0.6-0.2l-0.6-0.2l-0.6-0.2l-0.6-0.2l-0.6-0.3l-0.6-0.3l-0.6-0.3l-0.5-0.3l-0.5-0.3l-0.5-0.3l-0.5-0.4
			l-0.5-0.4l-0.5-0.4l-0.5-0.4l-0.5-0.5l-0.5-0.5l-0.5-0.5l-0.5-0.5l-0.5-0.5l-0.4-0.5l-0.4-0.6l-0.4-0.6l-0.5-0.7l-0.5-0.6
			l-0.5-0.6l-0.2-0.3l-0.2-0.3l-0.2-0.3l-0.2-0.3l-0.5-0.5l-0.5-0.5l-0.5-0.5l-0.3-0.2l-0.3-0.2l-0.6-0.5l-0.6-0.4l-0.6-0.4
			l-0.6-0.4l-0.6-0.4l-0.3-0.2l-0.3-0.2l-0.6-0.3l-0.6-0.3l-0.3-0.2l-0.3-0.1l-0.7-0.3l-0.7-0.2l-0.7-0.2l-0.7-0.2l-0.7-0.2
			l-0.7-0.2l-0.7-0.2l-0.7-0.1l-0.8-0.1l-0.4-0.1l-0.4,0l-0.4,0l-0.4,0l-0.8-0.1l-0.8,0l-0.8,0l-0.8,0l-0.8,0l-0.8,0.1l-0.8,0.1
			l-0.8,0.1l-0.8,0.1l-0.8,0.1l-0.7,0.2l-0.7,0.2l-0.7,0.2l-0.7,0.2l-0.7,0.2l-0.7,0.2l-0.7,0.3l-0.7,0.3l-0.6,0.3l-0.6,0.3
			l-0.6,0.3l-0.6,0.4l-0.6,0.4l-0.6,0.4l-0.6,0.4l-0.6,0.5l-0.5,0.5l-0.5,0.5l-0.5,0.5l-0.5,0.5l-0.5,0.6l-0.5,0.6l-0.5,0.6
			l-0.5,0.6l-0.4,0.7l-0.2,0.3l-0.2,0.3l-0.4,0.6l-0.2,0.3l-0.1,0.1l-0.1,0.1l-0.4,0.5l-0.5,0.5l-0.5,0.5l-0.5,0.5l-0.5,0.5
			l-0.2,0.2l-0.1,0.1l-0.1,0.1l-0.2,0.2l-0.1,0.1l-0.1,0.1l-0.3,0.2l-0.2,0.2l-0.3,0.2l-0.2,0.2l-0.5,0.3l-0.5,0.3l-0.1,0.1
			l-0.1,0.1l-0.3,0.2l-0.6,0.3l-0.2,0.1l-0.1,0.1l-0.3,0.1l-0.3,0.1l-0.3,0.1l-0.6,0.2l-0.3,0.1l-0.2,0.1l-0.1,0.1l-0.3,0.1
			l-0.3,0.1l-0.6,0.2l-0.3,0.1l-0.3,0.1l-0.3,0.1l-0.3,0.1l-0.7,0.1l-0.3,0.1l-0.2,0l-0.2,0l-0.7,0.1l-0.7,0.1l-0.3,0l-0.2,0l-0.2,0
			l-0.3,0l-0.3,0l-0.4,0l-0.3,0h-0.2l-0.2,0l-0.3,0v2.6l0.4,0l0.4,0l0.2,0l0.2,0l0.4,0l0.4,0l0.4,0l0.8-0.1l0.8-0.1l0.8-0.1l0.7-0.1
			l0.2,0l0.2,0l0.4-0.1l0.3-0.1l0.4-0.1l0.7-0.2l0.7-0.2l0.3-0.1l0.2-0.1l0.2-0.1l0.3-0.1l0.3-0.1l0.2-0.1l0.2-0.1l0.3-0.1l0.3-0.2
			l0.3-0.2l0.6-0.3l0.3-0.2l0.2-0.1l0.2-0.1l0.3-0.2l0.3-0.2l0.3-0.2l0.3-0.2l0.6-0.4l0.6-0.4l0.6-0.4l0.6-0.5l0.3-0.2l0.3-0.2
			l0.1-0.1l0.1-0.1l0.3-0.2l0.5-0.5l0.5-0.5l0.2-0.3l0.2-0.3l0.2-0.3l0.1-0.2l0.1-0.1l0.2-0.3l0.2-0.3l0.2-0.3l0.2-0.3l0.5-0.6
			l0.4-0.6l0.4-0.6l0.4-0.6l0.5-0.5l0.5-0.5l0.5-0.5l0.5-0.5l0.5-0.4l0.5-0.4l0.5-0.4l0.5-0.4l0.5-0.4l0.5-0.4l0.5-0.3l0.5-0.3
			l0.6-0.3l0.6-0.3l0.6-0.3l0.6-0.2l0.6-0.2l0.6-0.2l0.6-0.2l0.6-0.2l0.7-0.2l0.6-0.1l0.7-0.1l0.7-0.1l0.7-0.1l0.7-0.1l0.7,0l0.7,0
			l0.7,0l0.7,0l0.7,0l0.7,0l0.7,0.1l0.7,0.1l0.7,0.1l0.3,0.1l0.3,0.1l0.7,0.1l0.6,0.2l0.3,0.1l0.3,0.1l0.6,0.2l0.6,0.2l0.6,0.2
			l0.3,0.1l0.3,0.1l0.3,0.1l0.3,0.1l0.6,0.3l0.6,0.3l0.3,0.2l0.3,0.2l0.5,0.3l0.5,0.4l0.5,0.4l0.2,0.2l0.3,0.2l0.5,0.4l0.5,0.4
			l0.5,0.4l0.5,0.5l0.2,0.2l0.2,0.2l0.5,0.5l0.4,0.5l0.2,0.3l0.2,0.3l0.4,0.6l0.4,0.6l0.5,0.6l0.5,0.6l0.5,0.6l0.5,0.6l0.5,0.6
			l0.5,0.5l0.5,0.5l0.5,0.5l0.5,0.5l0.6,0.5l0.6,0.4l0.6,0.4l0.6,0.4l0.6,0.4l0.6,0.4l0.6,0.3l0.6,0.3l0.7,0.3l0.7,0.3l0.7,0.3
			l0.7,0.2l0.7,0.2l0.7,0.2l0.7,0.2l0.7,0.2l0.7,0.1l0.7,0.1l0.8,0.1l0.8,0.1l0.8,0.1l0.8,0L908.3,1547.6z"/>
		<path id="polygon2736" class="st7" d="M908.3,1549.7v2.6l-0.7,0l-0.7,0l-0.7,0.1l-0.7,0.1l-0.7,0.1l-0.7,0.1l-0.7,0.1l-0.6,0.1
			l-0.7,0.2l-0.6,0.2l-0.6,0.2l-0.6,0.2l-0.6,0.2l-0.6,0.2l-0.6,0.3l-0.6,0.3l-0.6,0.3l-0.5,0.3l-0.5,0.3l-0.5,0.3l-0.5,0.4
			l-0.5,0.4l-0.5,0.4l-0.5,0.4l-0.5,0.5l-0.5,0.5l-0.5,0.5l-0.5,0.5l-0.5,0.5l-0.4,0.5l-0.4,0.6l-0.4,0.6l-0.5,0.7l-0.5,0.6
			l-0.5,0.6l-0.2,0.3l-0.2,0.3l-0.2,0.3l-0.2,0.3l-0.5,0.5l-0.5,0.5l-0.5,0.5l-0.3,0.2l-0.3,0.2l-0.6,0.5l-0.6,0.4l-0.6,0.4
			l-0.6,0.4l-0.6,0.4l-0.3,0.2l-0.3,0.2l-0.6,0.3l-0.6,0.3l-0.3,0.2l-0.3,0.1l-0.7,0.3l-0.7,0.2l-0.7,0.2l-0.7,0.2l-0.7,0.2
			l-0.7,0.2l-0.7,0.2l-0.7,0.1l-0.8,0.1l-0.4,0.1l-0.4,0l-0.4,0l-0.4,0l-0.8,0.1l-0.8,0l-0.8,0l-0.8,0l-0.8,0l-0.8-0.1l-0.8-0.1
			l-0.8-0.1l-0.8-0.1l-0.8-0.1l-0.7-0.2l-0.7-0.2l-0.7-0.2l-0.7-0.2l-0.7-0.2l-0.7-0.2l-0.7-0.3l-0.7-0.3l-0.6-0.3l-0.6-0.3
			l-0.6-0.3l-0.6-0.4l-0.6-0.4l-0.6-0.4l-0.6-0.4l-0.6-0.5l-0.5-0.5l-0.5-0.5l-0.5-0.5l-0.5-0.5l-0.5-0.6l-0.5-0.6l-0.5-0.6
			l-0.5-0.6l-0.4-0.7l-0.2-0.3l-0.2-0.3l-0.4-0.6l-0.2-0.3l-0.1-0.1l-0.1-0.1l-0.4-0.5l-0.5-0.5l-0.5-0.5l-0.5-0.5l-0.5-0.5
			l-0.2-0.2l-0.1-0.1l-0.1-0.1l-0.2-0.2l-0.1-0.1l-0.1-0.1l-0.3-0.2l-0.2-0.2l-0.3-0.2l-0.2-0.2l-0.5-0.3l-0.5-0.3l-0.1-0.1
			l-0.1-0.1l-0.3-0.2l-0.6-0.3l-0.2-0.1l-0.1-0.1l-0.3-0.1l-0.3-0.1l-0.3-0.1l-0.6-0.2l-0.3-0.1l-0.2-0.1l-0.1-0.1l-0.3-0.1
			l-0.3-0.1l-0.6-0.2l-0.3-0.1l-0.3-0.1l-0.3-0.1l-0.3-0.1l-0.7-0.1l-0.3-0.1l-0.2,0l-0.2,0l-0.7-0.1l-0.7-0.1l-0.3,0l-0.2,0l-0.2,0
			l-0.3,0l-0.3,0l-0.4,0l-0.3,0h-0.2l-0.2,0l-0.3,0v-2.6l0.4,0l0.4,0l0.2,0l0.2,0l0.4,0l0.4,0l0.4,0l0.8,0.1l0.8,0.1l0.8,0.1
			l0.7,0.1l0.2,0l0.2,0l0.4,0.1l0.3,0.1l0.4,0.1l0.7,0.2l0.7,0.2l0.3,0.1l0.2,0.1l0.2,0.1l0.3,0.1l0.3,0.1l0.2,0.1l0.2,0.1l0.3,0.1
			l0.3,0.2l0.3,0.2l0.6,0.3l0.3,0.2l0.2,0.1l0.2,0.1l0.3,0.2l0.3,0.2l0.3,0.2l0.3,0.2l0.6,0.4l0.6,0.4l0.6,0.4l0.6,0.5l0.3,0.2
			l0.3,0.2l0.1,0.1l0.1,0.1l0.3,0.2l0.5,0.5l0.5,0.5l0.2,0.3l0.2,0.3l0.2,0.3l0.1,0.2l0.1,0.1l0.2,0.3l0.2,0.3l0.2,0.3l0.2,0.3
			l0.5,0.6l0.4,0.6l0.4,0.6l0.4,0.6l0.5,0.5l0.5,0.5l0.5,0.5l0.5,0.5l0.5,0.4l0.5,0.4l0.5,0.4l0.5,0.4l0.5,0.4l0.5,0.4l0.5,0.3
			l0.5,0.3l0.6,0.3l0.6,0.3l0.6,0.3l0.6,0.2l0.6,0.2l0.6,0.2l0.6,0.2l0.6,0.2l0.7,0.2l0.6,0.1l0.7,0.1l0.7,0.1l0.7,0.1l0.7,0.1
			l0.7,0l0.7,0l0.7,0l0.7,0l0.7,0l0.7,0l0.7-0.1l0.7-0.1l0.7-0.1l0.3-0.1l0.3-0.1l0.7-0.1l0.6-0.2l0.3-0.1l0.3-0.1l0.6-0.2l0.6-0.2
			l0.6-0.2l0.3-0.1l0.3-0.1l0.3-0.1l0.3-0.1l0.6-0.3l0.6-0.3l0.3-0.2l0.3-0.2l0.5-0.3l0.5-0.4l0.5-0.4l0.2-0.2l0.3-0.2l0.5-0.4
			l0.5-0.4l0.5-0.4l0.5-0.5l0.2-0.2l0.2-0.2l0.5-0.5l0.4-0.5l0.2-0.3l0.2-0.3l0.4-0.6l0.4-0.6l0.5-0.6l0.5-0.6l0.5-0.6l0.5-0.6
			l0.5-0.6l0.5-0.5l0.5-0.5l0.5-0.5l0.5-0.5l0.6-0.5l0.6-0.4l0.6-0.4l0.6-0.4l0.6-0.4l0.6-0.4l0.6-0.3l0.6-0.3l0.7-0.3l0.7-0.3
			l0.7-0.3l0.7-0.2l0.7-0.2l0.7-0.2l0.7-0.2l0.7-0.2l0.7-0.1l0.7-0.1l0.8-0.1l0.8-0.1l0.8-0.1l0.8,0L908.3,1549.7z"/>
		<path id="polygon247" class="st7" d="M863.3,1547.4v-2.9l-5.8,2.5v12l5.8,3l0.1-3.8l-2.8-1.6l-0.1-7.9L863.3,1547.4z"/>
		<path id="polygon249" class="st7" d="M867.7,1547.3h4v4.1h3v-7h-10.1v18.3l5.1,2.7l5-2.7v-10.8h-5.4v2.4h2.7v6.3l-2.2,1.2l-2-1.5
			L867.7,1547.3L867.7,1547.3z"/>
		<path id="polygon251" class="st7" d="M878.8,1545.7l-2.6-1.3v17.8l6.2-3.4v-11.6l-2.8-1.2v11l-0.8,0.1L878.8,1545.7L878.8,1545.7z
			"/>
		<path id="polygon253" class="st7" d="M856,1547.9l-2.5-1.5l16.2-8.3l16.2,8.3l-2.5,1.5v3l9.2-4.7l-22.8-11.2l-22.6,11.2l8.9,4.7
			L856,1547.9L856,1547.9z"/>
	</g>
</g>
</svg>
